<?xml version="1.0" encoding="UTF-8" standalone="no"?>
<!DOCTYPE svg PUBLIC "-//W3C//DTD SVG 1.1//EN" "http://www.w3.org/Graphics/SVG/1.1/DTD/svg11.dtd">
<svg width="100%" height="100%" viewBox="0 0 180 180" version="1.1" xmlns="http://www.w3.org/2000/svg" xmlns:xlink="http://www.w3.org/1999/xlink" xml:space="preserve" xmlns:serif="http://www.serif.com/" style="fill-rule:evenodd;clip-rule:evenodd;stroke-linejoin:round;stroke-miterlimit:2;">
    <g transform="matrix(1.35338,0,0,1.38462,0,0)">
        <rect x="0" y="0" width="133" height="130" style="fill:rgb(0,209,243);"/>
    </g>
    <g transform="matrix(1,0,0,1,25,65)">
        <path d="M2.857,27.582L11.447,31.543C11.791,31.707 12.037,31.871 12.185,32.035C12.334,32.191 12.408,32.371 12.408,32.574C12.408,32.809 12.338,32.996 12.197,33.137C12.065,33.277 11.877,33.348 11.635,33.348C11.525,33.348 11.404,33.328 11.272,33.289C11.139,33.25 10.951,33.172 10.709,33.055L1.393,28.707C1.361,28.699 1.322,28.684 1.275,28.66C0.557,28.332 0.197,27.973 0.197,27.582C0.197,27.191 0.549,26.84 1.252,26.527C1.314,26.496 1.361,26.473 1.393,26.457L10.709,22.18C10.92,22.078 11.1,22.008 11.248,21.969C11.397,21.922 11.525,21.898 11.635,21.898C11.877,21.898 12.065,21.965 12.197,22.098C12.338,22.231 12.408,22.41 12.408,22.637C12.408,22.848 12.334,23.035 12.185,23.199C12.037,23.356 11.791,23.512 11.447,23.668L2.857,27.582ZM41.314,21.254C37.798,20.516 35.795,19.566 35.056,18.512C28.974,10.039 58.611,10.18 61.529,10.039C61.318,11.199 61.072,12.57 60.72,14.328C58.295,26.387 53.091,47.762 43.599,45.863C35.478,44.246 11.045,18.582 14.771,7.93C16.142,3.992 24.861,1.813 32.912,5.75C33.263,5.926 33.615,6.137 33.931,5.891C34.248,5.645 34.388,5.082 34.072,4.871C26.197,0.266 15.228,2.199 13.4,7.473C9.357,19.004 34.353,45.477 43.318,47.27C54.111,49.414 59.63,27.195 62.127,14.609C62.443,13.027 62.759,11.375 63.006,10.039C63.041,10.039 63.111,10.004 63.146,9.969C66.24,8.738 77.982,9.758 81.147,10.004C81.533,10.039 81.885,9.723 81.92,9.336C82.131,6.699 63.603,8.246 62.83,8.563C58.611,8.703 26.267,8.668 33.896,19.356C34.845,20.691 37.13,21.852 40.998,22.66C41.384,22.766 41.771,22.52 41.841,22.098C41.947,21.711 41.701,21.324 41.314,21.254ZM84.908,35.141C81.533,37.988 80.022,39.992 79.705,41.293C79.354,42.875 80.338,43.613 82.096,43.754C83.467,43.859 85.33,43.543 87.299,42.945C91.904,41.539 97.037,38.551 97.072,35.844C97.107,32.785 90.041,32.223 82.623,31.625C76.541,31.168 70.248,30.641 67.998,28.988C67.119,28.356 66.979,27.441 67.928,26.176C70.67,22.52 77.631,17.246 85.154,12.957C89.865,10.25 94.787,7.93 99.006,6.629C103.049,5.398 106.354,5.082 108.006,6.313C108.287,6.523 108.533,6.805 108.744,7.156C110.537,10.285 93.697,25.93 92.08,27.477L91.975,27.547C91.693,27.828 91.693,28.25 91.975,28.496C92.256,28.777 92.713,28.777 92.994,28.496L93.1,28.426C93.574,27.971 95.3,26.356 97.485,24.181C103.069,18.623 111.652,9.404 110.01,6.523C109.729,6.031 109.342,5.609 108.92,5.293C106.811,3.711 103.049,3.992 98.549,5.363C94.26,6.699 89.232,9.055 84.416,11.797C76.717,16.191 69.58,21.606 66.768,25.402C65.256,27.406 65.572,28.883 67.084,30.008C69.686,31.941 76.225,32.469 82.482,32.961C89.232,33.488 95.666,34.016 95.631,35.844C95.631,37.918 90.99,40.414 86.877,41.68C85.049,42.207 83.361,42.523 82.201,42.418C81.463,42.348 81.006,42.102 81.111,41.539C81.357,40.52 82.764,38.762 85.857,36.125C86.174,35.879 86.174,35.457 85.928,35.176C85.647,34.93 85.189,34.895 84.908,35.141ZM106.544,35.316C106.372,35.707 106.208,35.973 106.052,36.113C105.903,36.254 105.724,36.324 105.513,36.324C105.294,36.324 105.103,36.242 104.939,36.078C104.775,35.922 104.693,35.731 104.693,35.504C104.693,35.441 104.704,35.367 104.728,35.281C104.751,35.203 104.782,35.117 104.821,35.023L112.134,19.262C112.329,18.856 112.501,18.582 112.65,18.441C112.798,18.293 112.978,18.219 113.189,18.219C113.423,18.219 113.622,18.297 113.786,18.453C113.95,18.609 114.032,18.797 114.032,19.016C114.032,19.078 114.021,19.148 113.997,19.227C113.982,19.305 113.954,19.379 113.915,19.449L106.544,35.316ZM126.724,27.582L118.157,23.668C117.798,23.504 117.544,23.344 117.396,23.188C117.247,23.023 117.173,22.84 117.173,22.637C117.173,22.41 117.239,22.231 117.372,22.098C117.513,21.965 117.7,21.898 117.935,21.898C118.052,21.898 118.181,21.922 118.321,21.969C118.47,22.008 118.653,22.078 118.872,22.18L128.189,26.457C128.22,26.473 128.267,26.496 128.329,26.527C129.032,26.84 129.384,27.191 129.384,27.582C129.384,27.965 129.04,28.316 128.353,28.637C128.275,28.668 128.22,28.691 128.189,28.707L118.872,33.055L118.825,33.078C118.419,33.258 118.122,33.348 117.935,33.348C117.7,33.348 117.513,33.277 117.372,33.137C117.239,32.996 117.173,32.809 117.173,32.574C117.173,32.371 117.247,32.191 117.396,32.035C117.544,31.871 117.798,31.707 118.157,31.543L126.724,27.582Z" style="fill:white;fill-rule:nonzero;"/>
    </g>
</svg>
