<svg xmlns="http://www.w3.org/2000/svg" xmlns:xlink="http://www.w3.org/1999/xlink" version="1.1" x="0px" y="0px" viewBox="0 0 100 125" fill="#38bdf8" style="enable-background:new 0 0 100 100;" xml:space="preserve"><g><path d="M58.2,74.9c0.4,0,0.8-0.1,1.2-0.3c1.5-0.7,2.1-2.4,1.4-3.9c0,0-5.5-12.6-6.5-17.2c-0.4-1.6-0.6-5.9-0.7-7.9   c0-0.7,0.4-1.3,1-1.5l12.3-3.7c1.5-0.4,2.4-2.1,2-3.6c-0.4-1.5-2.1-2.4-3.6-2c0,0-11.4,3.7-15.5,3.7c-4,0-15.3-3.6-15.3-3.6   c-1.5-0.4-3.2,0.3-3.7,1.8c-0.5,1.6,0.4,3.3,2,3.7l12.3,3.7c0.6,0.2,1.1,0.8,1,1.5c-0.1,2-0.3,6.3-0.7,7.9   c-1,4.6-6.5,17.2-6.5,17.2c-0.7,1.5,0,3.2,1.4,3.9c0.4,0.2,0.8,0.3,1.2,0.3c1.1,0,2.2-0.6,2.6-1.7L50,61.2l5.6,12.1   C56.1,74.3,57.1,74.9,58.2,74.9z"/><circle cx="50" cy="30" r="5.6"/><path d="M90.2,50c0-22.2-18-40.2-40.2-40.2S9.8,27.8,9.8,50s18,40.2,40.2,40.2S90.2,72.2,90.2,50z M13.1,50   c0-20.3,16.5-36.9,36.9-36.9S86.9,29.7,86.9,50S70.3,86.9,50,86.9S13.1,70.3,13.1,50z"/></g></svg>