<svg xmlns="http://www.w3.org/2000/svg" data-name="Layer 1" viewBox="0 0 512 640" x="0px" y="0px"><path d="M382.86,200.49c-26.25,0-47.51,21.26-47.51,47.51s21.26,47.51,47.51,47.51,47.51-21.29,47.51-47.51-21.29-47.51-47.51-47.51h0Zm-43.51,4c24.04-24.01,62.99-24.01,87,0,22.88,22.88,24.12,59.56,2.86,83.93,33.45,33.79,40.34,75.94,28.12,122.8-.82,3.15-3.66,5.24-6.75,5.24v.03h-85.78c-4.05,0-7.23-3.32-6.94-7.77l.74-37.67-67.75,41.47c-3.66,2.95-7.97,4.79-12.42,5.44-8.22,1.22-16.72-1.73-22.45-7.82-5.73,6.09-14.2,9.04-22.42,7.82-4.48-.65-8.79-2.49-12.42-5.44l-67.75-41.47,.74,37.67c.28,4.45-2.89,7.77-6.94,7.77H61.41v-.03c-3.09,0-5.92-2.1-6.75-5.24-13.04-50.06-4.08-93.94,33.7-128.18-16.98-24.43-13.95-57.51,7.06-78.55,30.16-30.16,80.96-21.09,99.1,17.18,2.24-7.11,5.07-12.95,8.48-17.09-29.99-22.42-33.28-66.25-6.72-92.81,24.01-24.01,62.96-24.01,87,0,23.41,23.44,24.09,61.2,1.47,85.44,16.47,8.99,25.82,26.62,31.01,46.43,4.37,16.75-3.54,55.73-11.48,92.75l45.64-36.43c-33.19-21.09-38.47-67.55-10.57-95.47h0Zm79.54,93.34c-15.7,11.37-36.09,14.77-54.85,8.73l-66.22,52.87-28.8,22.85c-8.48,4.68-7.91,17.15,.99,21,4.08,1.79,8.84,1.08,12.25-1.79l79.91-49.01h.03c4.62-2.83,10.71,.57,10.6,6.09l-.88,43.91h73.19c9.3-40.31,2.61-75.77-26.22-104.66h0ZM138.91,200.49c-26.22,0-47.51,21.26-47.51,47.51s21.29,47.51,47.51,47.51,47.51-21.29,47.51-47.51-21.26-47.51-47.51-47.51h0Zm49.21,84.42c-5.78,7.71-13.32,13.97-22.03,18.28l25.54,20.35c-1.96-12.61-3.12-25.82-3.52-38.64h0Zm-37.81,23.56c-19.3,3.6-38.69-2.18-52.7-14.91-32.26,29.31-40.62,66.02-30.73,108.94h73.19l-.88-43.91c-.11-5.53,5.95-8.93,10.6-6.09h0l79.94,49.01c7.37,6.24,18.82,1.3,19.28-8.39,.2-4.45-2.1-8.65-6.04-10.83-1.53-.82-86.88-69.22-92.66-73.81h0Zm58.03,28.43l27.98,22.34,22.31-102.76c.82-3.77,4.54-6.18,8.33-5.36,3.77,.82,6.15,4.54,5.36,8.31l-23.78,109.56c2.58,2.04,5.16,3.49,7.46,5.95,1.67-1.76,3.6-3.32,5.75-4.56l25.29-20.21c.68-3.12,1.36-6.32,2.04-9.52,8.11-37.53,17.01-78.89,13.18-93.51-4.68-17.89-13.1-34.3-29.45-39.94-17.04,10.86-38.58,12.67-57.29,4.62-6.66,3.46-11,20.83-12.78,43.43-1.96,25.11-.14,55.76,5.61,81.67h0Zm31.44-229.12c-26.22,0-47.51,21.26-47.51,47.51s21.29,47.51,47.51,47.51,47.51-21.29,47.51-47.51-21.26-47.51-47.51-47.51h0Z" fill="#f87171"/></svg>