<svg xmlns="http://www.w3.org/2000/svg" xmlns:xlink="http://www.w3.org/1999/xlink" version="1.1" x="0px" y="0px" viewBox="0 0 68 85" fill="#c084fc" style="enable-background:new 0 0 68 68;" xml:space="preserve"><g><path d="M9.9,51.2c-4.8,2.1-5.9,8.2-1.8,10.7c2.4,1.4,5.9,1.9,8.8,1.7c0.6,0,1-0.5,0.9-1.1s-0.5-1-1.1-0.9   c-2.4,0.2-5.6-0.2-7.6-1.4c-2.7-1.6-1.6-5.7,1.6-7.1c6-2.6,11.1-2.8,14.4-6.3c1-1,1.4-2.2,1.4-3.6c0-3.2,0-6.4-0.1-9.7   c0-0.9-0.5-1.4-1-1.5c-0.4-0.1-0.8,0.1-1.1,0.4c-0.4,0.4-3.2,6.6-3.2,6.7c-0.3,0.7-0.8,1.3-1.4,1.8c-4.4,3.2-8.8,6.4-13.2,9.7   c-0.6,0.5-1,0.5-1.5,0.3c-0.9-0.4-1.4-1.6-0.4-2.4c0.5-0.5,1.2-1,12.1-9.6c0.7-0.6,1.3-1.3,1.6-2.1c2.5-6.1,3.4-8.2,4.4-10.6   c0.4-1.1,1.5-1.8,2.6-1.9c1.1-0.1,2.1-0.2,2.9-0.3c2-0.4,3.7-2.2,4.3-4.2c0.5,0.1,1,0.1,1.6,0.1c0,0,0,0,0,0c0.7,0,1.3-0.1,1.9-0.2   c0.6,2,2.4,3.8,4.5,4.1c0.8,0.1,1.7,0.2,2.7,0.2c1.2,0,2.3,0.8,2.8,1.9l0.8,2.1c0.2,0.5,0.8,0.8,1.3,0.6c0.5-0.2,0.8-0.8,0.6-1.3   L47.8,25c-0.7-1.9-2.5-3.2-4.6-3.2c-1,0-1.8-0.1-2.5-0.2c-1.3-0.2-2.5-1.5-2.9-2.8c3.1-1.4,5.2-4.5,5.2-8.1c0-5-4-9-9-9   c0,0,0,0,0,0c-4.9,0-9,4.1-9,9c0,3.8,2.3,6.9,5.5,8.3c-0.3,1.2-1.5,2.5-2.7,2.8c-0.7,0.1-1.6,0.2-2.7,0.3c-1.9,0.1-3.6,1.3-4.4,3.1   c-1.3,3.2-2.5,6.2-4.4,10.6c-0.2,0.5-0.6,1-1,1.3c-0.7,0.5-11.5,9.1-12.2,9.6c-0.9,0.8-1.4,1.9-1.2,3.1c0.2,1.2,1,2.2,2.2,2.7   c1.5,0.6,2.7,0,3.5-0.6c4.4-3.2,8.8-6.4,13.2-9.6c0.9-0.7,1.6-1.5,2.1-2.6c0.5-1.1,1-2.3,1.6-3.4c0,2.2,0,4.4,0,6.7   c0,0.8-0.3,1.6-0.9,2.2C20.9,48.3,16,48.5,9.9,51.2z M27,10.8c0-3.8,3.2-7,7-7c0,0,0,0,0,0c3.9,0,7,3.2,7,7c0,3.8-3.1,7-7,7   c0,0,0,0,0,0C30.2,17.8,27,14.6,27,10.8z"/><path d="M53.2,37.5c-0.6-0.5-1.1-1.1-1.4-1.9c-0.7-1.9-0.8-2.1-1.4-3.7l-0.2-0.7c-0.2-0.5-0.8-0.8-1.3-0.6   c-0.5,0.2-0.8,0.8-0.6,1.3l0.2,0.7c0.6,1.6,0.7,1.8,1.4,3.7c0.4,1.1,1.1,2,2,2.7c0.3,0.3,11.4,9.2,11.7,9.5   c0.5,0.5,0.5,1.3,0.1,1.8c-0.5,0.6-1.2,0.7-1.8,0.3c-0.3-0.2-2.5-1.9-13.3-10.4c-0.6-0.5-1-1-1.3-1.7c-0.9-1.9-1.8-3.7-2.7-5.6   c-0.2-0.3-0.7-1.3-1.5-1.2c-0.3,0-1.2,0.3-1.1,1.7c-0.2,2.9-0.3,5.7-0.5,8.6c-0.2,2.6,0.9,4.6,3.3,6.1c1.6,1,3.4,1.7,4.7,2.1   c4.7,1.5,5.4,1.5,7.9,2.7c1.7,0.8,3.5,2.9,3.1,5c-0.4,2.3-2.8,3.2-5.1,3.6c-3.8,0.7-6.2,0-19.4-0.1c-2.8,0-5.5,0.4-9.2,1.3   c-1.6,0.4-5.3,1.3-5.7,1.4c1.1-1.2,3.1-1.2,8.1-5.8c0.5-0.5,1-0.9,1.4-1.2c1.1-0.8,2.2-0.9,3.4-0.2c2.1,1.1,2.3,1.2,4.4,0.9   c1.6-0.3,6.8-0.8,9.6-3c0.4-0.3,0.5-1,0.2-1.4c-0.3-0.4-1-0.5-1.4-0.2c-2.2,1.7-7,2.3-8.7,2.6c-1.5,0.2-1.5,0.2-3.2-0.7   c-1.8-1-3.7-0.9-5.5,0.4c-0.5,0.4-1,0.8-1.6,1.3c-5,4.5-7,4.3-8.4,6.1c-0.9,1.2-0.3,3.2,1.4,3.2c0.8,0,2-0.5,6.3-1.5   c3.5-0.8,6.1-1.2,8.7-1.2c13.3,0.1,15.7,0.8,19.8,0c3.2-0.6,6.1-2,6.7-5.2c0.6-3.1-1.7-6.1-4.2-7.2c-2.7-1.2-3.6-1.3-8.1-2.8   c-1.2-0.4-2.8-1-4.3-1.9c-1.7-1.1-2.5-2.5-2.4-4.3c0.2-2.1,0.3-4.2,0.4-6.3c0.6,1.2,1.1,2.3,1.7,3.5c0.5,1,1.1,1.8,1.9,2.4   c5.4,4.2,13.2,10.4,13.6,10.5c1.5,0.9,3.3,0.5,4.4-0.8c1.1-1.3,1-3.2-0.2-4.5C64.7,46.7,53.3,37.6,53.2,37.5z"/></g></svg>