<svg xmlns="http://www.w3.org/2000/svg" data-name="Layer 1" viewBox="0 0 512 640" x="0px" y="0px"><path d="M380.11,56c0-3.85,3.15-7,7-7s7,3.15,7,7v9.01c13.01,2.35,24.97,11.74,24.97,25.2,0,3.88-3.15,7-7,7s-7-3.12-7-7c0-5.47-5.84-9.38-10.97-10.86v23.9c13.21,2.64,24.97,6.97,24.97,24.6,0,13.46-11.96,22.85-24.97,25.2v9.01c0,3.85-3.15,7-7,7s-7-3.15-7-7v-9.01c-13.01-2.35-24.97-11.74-24.97-25.2,0-3.88,3.15-7,7-7s7,3.12,7,7c0,5.47,5.84,9.38,10.97,10.86v-23.9c-13.21-2.64-24.97-6.97-24.97-24.6,0-13.46,11.96-22.85,24.97-25.2v-9.01Zm14,61.6v21.12c5.13-1.47,10.97-5.39,10.97-10.86,0-6.01-4.79-8.65-10.97-10.26h0Zm-14-17.12v-21.12c-5.13,1.47-10.97,5.39-10.97,10.86,0,6.01,4.79,8.65,10.97,10.26h0Zm-99.52,64.57c0-3.88,3.12-7,7-7s7,3.12,7,7v9.01c13.01,2.35,24.94,11.74,24.94,25.2,0,3.85-3.12,7-7,7s-7-3.15-7-7c0-5.47-5.81-9.38-10.94-10.86v23.9c13.21,2.64,24.94,6.97,24.94,24.6,0,13.46-11.93,22.85-24.94,25.17v9.04c0,3.85-3.15,7-7,7s-7-3.15-7-7v-9.04c-13.01-2.32-24.97-11.71-24.97-25.17,0-3.88,3.15-7,7-7s7,3.12,7,7c0,5.47,5.81,9.35,10.97,10.86v-23.9c-13.24-2.66-24.97-6.97-24.97-24.6,0-13.46,11.96-22.85,24.97-25.2v-9.01Zm14,61.6v21.12c5.13-1.5,10.94-5.39,10.94-10.86,0-6.01-4.76-8.65-10.94-10.26h0Zm-14-17.12v-21.12c-5.16,1.47-10.97,5.39-10.97,10.86,0,6.01,4.76,8.62,10.97,10.26h0ZM82.25,449H429.75v-29.42H82.25v29.42Zm354.5,14H75.25c-3.86,0-7-3.12-7-7v-43.43c0-3.88,3.15-7,7-7h10.66v-119.34c0-3.88,3.15-7,7-7H221.09c3.86,0,7,3.12,7,7v119.34h23.56v-93.52c0-3.88,3.15-7,7-7h57.86c3.88,0,7,3.12,7,7v93.52h27.67V218.97c0-3.88,3.15-7,7-7h57.88c3.86,0,7,3.12,7,7v186.6h13.69c3.86,0,7,3.12,7,7v43.43c0,3.88-3.15,7-7,7h0Zm-336.84-57.43h114.18v-112.34h-31.32v43.8c0,5.5-6.32,9.35-11.48,5.39l-14.29-10.15-14.71,10.46c-4.68,3.32-11.06-.17-11.03-5.7h-.03v-43.8h-31.32v112.34Zm68.85-112.34h-23.53v30.27l7.6-5.41c2.38-1.76,5.7-1.87,8.22-.08l7.71,5.5v-30.27Zm240.29-67.27h-43.88v179.6h43.88V225.97Zm-99.55,93.09h-43.85v86.51h43.85v-86.51Z"/><text x="0" y="527" fill="#000000" font-size="5px" font-weight="bold" font-family="'Helvetica Neue', Helvetica, Arial-Unicode, Arial, Sans-serif">Created by gingertea</text><text x="0" y="532" fill="#000000" font-size="5px" font-weight="bold" font-family="'Helvetica Neue', Helvetica, Arial-Unicode, Arial, Sans-serif">from the Noun Project</text></svg>