<svg xmlns="http://www.w3.org/2000/svg" data-name="Layer 1" viewBox="0 0 512 640" x="0px" y="0px"><path d="M109.92,336.26h27.95c6.6,0,12.42,2.72,16.72,7.11,4.05-4.82,9.16-7.99,35.09-15.51,18.37-5.3,33.56-15.93,41.95-21.83,7.26-5.07,9.01-6.35,14.71-5.02-.42-1.73-.74-3.54-.91-5.36h-1.11c-3.86,0-7-3.15-7-7v-23.22c-42.29-27.5-48.95-87.17-12.98-123.11,31.1-31.1,81.5-31.1,112.59,0,34.36,34.36,30.1,90.85-8.45,119.91v26.42c0,3.85-3.15,7-7,7h-1.11c-.31,3.29-1.05,6.46-2.15,9.47,16.58-2.38,31.38,11,30.59,27.86-.03,.65-.17,1.3-.37,1.9-3.06,9.75-23.13,80.79-24.24,82.94h.03c-9.13,18.11-33.82,24.07-52.5,26.67-.17,.03-.34,.03-.51,.06h0c-89.32,5.98-111.77,9.21-115.26,9.75-.14,.09-6.24,8.67-18.11,8.67h-27.95c-12.87,0-23.36-10.52-23.36-23.39v-79.97c0-12.87,10.49-23.39,23.36-23.39h0Zm27.95,14h-27.95c-5.13,0-9.38,4.25-9.38,9.38v79.97c0,5.13,4.25,9.38,9.38,9.38h27.95c5.13,0,9.38-4.25,9.38-9.38v-79.97c0-5.13-4.25-9.38-9.38-9.38h0Zm129.71-23.81c.96,18.06-13.95,37.62-27.27,49.61,16.21,.37,24.83,.62,29.62-2.66,5.02-3.46,9.01-12.22,17.06-29.88,2.13-4.68,4.54-9.95,7.12-15.51-8.73,2.72-18.23,2.15-26.53-1.56h0Zm-103.72,27.72c-3.09,4.05-2.64,2.35-2.64,5.47v79.94c12.61-1.5,42.63-4.51,108.91-8.96,8.62-1.19,17.86-3.12,25.71-6.38,6.94-2.89,12.73-6.8,15.68-12.19l23.39-80.45c-.03-2.86-.99-5.53-2.64-7.68-6.01-7.94-18.34-6.29-22.11,2.83h-.03l-.11,.28c-4.37,9.16-7.57,16.21-10.35,22.28-9.07,19.96-13.61,29.88-21.85,35.55-8.45,5.81-18.08,5.58-37.3,5.16-6.26-.14-13.61-.31-22.2-.31h0c-7.57,0-9.69-10.54-2.64-13.44,8.73-3.57,21.91-15.05,30.44-28.03,5.9-9.04,9.35-18.45,6.6-25.4-1.81-4.59-5.98-7.85-10.86-8.48-1.84-.23,.25,1.36-2.24,3.12-9.07,6.35-25.48,17.83-46.06,23.78-25.46,7.37-26.82,9.13-29.71,12.9h0Zm-21-153.38c-3.88,0-7-3.15-7-7s3.12-7,7-7h40.85c3.85,0,7,3.12,7,7s-3.15,7-7,7h-40.85Zm35.4-99.5c-2.72-2.75-2.72-7.17,0-9.89,2.72-2.75,7.17-2.75,9.89,0l28.89,28.89c2.75,2.72,2.75,7.14,0,9.89-2.72,2.72-7.17,2.72-9.89,0l-28.88-28.89Zm240.18,85.49c3.86,0,7,3.12,7,7s-3.15,7-7,7h-40.85c-3.85,0-7-3.15-7-7s3.15-7,7-7h40.85Zm-45.3-95.39c2.72-2.75,7.14-2.75,9.89,0,2.72,2.72,2.72,7.14,0,9.89l-28.89,28.89c-2.75,2.72-7.17,2.72-9.89,0-2.75-2.75-2.75-7.17,0-9.89l28.89-28.89Zm-99.5-35.43c0-3.85,3.15-6.97,7-6.97s7,3.12,7,6.97v40.88c0,3.85-3.15,7-7,7s-7-3.15-7-7V55.97Zm25.99,252.82c3.46-3.49,5.87-8.05,6.63-13.12h-46.72c2.89,18.99,26.36,26.84,40.08,13.12h0Zm-48.3-40.37v13.24h63.16v-13.24h-63.16Zm75.71-116.19c-25.63-25.63-67.18-25.63-92.81,0-20.92,20.92-25.31,53.49-10.49,79.17,5.39,9.38,13.07,17.29,22.28,23.02h69.19c9.24-5.73,16.95-13.69,22.37-23.1,14.77-25.68,10.35-58.2-10.54-79.09h0Z"/><text x="0" y="527" fill="#000000" font-size="5px" font-weight="bold" font-family="'Helvetica Neue', Helvetica, Arial-Unicode, Arial, Sans-serif">Created by gingertea</text><text x="0" y="532" fill="#000000" font-size="5px" font-weight="bold" font-family="'Helvetica Neue', Helvetica, Arial-Unicode, Arial, Sans-serif">from the Noun Project</text></svg>