<svg xmlns="http://www.w3.org/2000/svg" xmlns:xlink="http://www.w3.org/1999/xlink" version="1.1" x="0px" y="0px" viewBox="0 0 100 125" fill="#fbbf24" style="enable-background:new 0 0 100 100;" xml:space="preserve"><path d="M54.682,4.004c-9.298,0-18.098,3.56-24.778,10.025c-6.664,6.449-10.511,15.096-10.832,24.348  c-0.023,0.676-0.166,1.22-0.476,1.819l-8.421,16.283c-0.777,1.503-0.621,3.146,0.427,4.51c0.976,1.27,2.532,1.998,4.271,1.998h4.177  v5.137c0,3.857,0.503,7.066,1.495,9.537c1.631,4.063,4.628,6.21,8.665,6.21h3.134c1.452,0,2.633,1.181,2.633,2.633v8.19  c0,0.72,0.584,1.304,1.304,1.304h36.803c0.72,0,1.304-0.584,1.304-1.304V77.104c0-4.628,1.689-8.603,5.021-11.814  c7.033-6.779,10.906-15.89,10.906-25.655C90.313,19.988,74.329,4.004,54.682,4.004z M77.598,63.413  c-3.861,3.722-5.819,8.328-5.819,13.691v16.285H37.584v-6.887c0-2.889-2.351-5.24-5.24-5.24H29.21c-2.967,0-5.01-1.496-6.246-4.575  c-0.867-2.16-1.307-5.042-1.307-8.565v-6.441c0-0.72-0.584-1.304-1.304-1.304h-5.481c-0.936,0-1.718-0.348-2.204-0.98  c-0.43-0.56-0.488-1.123-0.178-1.723l8.421-16.282c0.486-0.939,0.729-1.869,0.765-2.926C22.298,20.604,36.795,6.611,54.682,6.611  c18.21,0,33.025,14.815,33.025,33.025C87.706,48.685,84.117,57.13,77.598,63.413z M54.606,24.454  c-8.051,0-14.601,6.55-14.601,14.601c0,3.861,1.493,7.501,4.204,10.25c1.353,1.372,2.011,2.976,2.011,4.903v7.255  c0,2.425,1.793,4.422,4.119,4.78l0.639,3.044c0.127,0.604,0.659,1.036,1.276,1.036h4.706c0.617,0,1.149-0.432,1.276-1.036  l0.639-3.044c2.326-0.358,4.119-2.355,4.119-4.78v-7.255c0-1.927,0.658-3.53,2.011-4.903c2.711-2.749,4.204-6.39,4.204-10.25  C69.207,31.004,62.657,24.454,54.606,24.454z M53.312,67.716l-0.294-1.398h3.176L55.9,67.716H53.312z M58.138,63.711h-7.064  c-1.239,0-2.248-1.008-2.248-2.248v-3.012h11.559v3.012C60.386,62.703,59.377,63.711,58.138,63.711z M53.707,52.668  c0-0.496,0.403-0.899,0.899-0.899c0.487,0,0.899,0.412,0.899,0.899v3.177h-1.798V52.668z M63.147,47.475  c-1.832,1.858-2.761,4.124-2.761,6.733v1.636h-2.273v-3.177c0-1.472-0.914-2.73-2.203-3.249V44.19l5.624-6.153  c0.486-0.531,0.449-1.356-0.083-1.842c-0.532-0.486-1.356-0.449-1.842,0.083l-5.003,5.474l-5.003-5.474  c-0.486-0.531-1.31-0.568-1.842-0.083c-0.531,0.486-0.568,1.31-0.083,1.842l5.624,6.153v5.229c-1.288,0.519-2.203,1.777-2.203,3.249  v3.177h-2.273v-1.636c0-2.61-0.929-4.875-2.761-6.733c-2.227-2.258-3.453-5.248-3.453-8.42c0-6.614,5.381-11.994,11.994-11.994  S66.6,32.442,66.6,39.056C66.6,42.227,65.374,45.217,63.147,47.475z M53.302,20.194v-4.315c0-0.72,0.584-1.304,1.304-1.304  s1.304,0.584,1.304,1.304v4.315c0,0.72-0.584,1.304-1.304,1.304S53.302,20.914,53.302,20.194z M67.022,26.64  c-0.509-0.509-0.509-1.334,0-1.843l3.051-3.051c0.509-0.509,1.334-0.509,1.844,0c0.509,0.509,0.509,1.334,0,1.843l-3.051,3.051  c-0.254,0.255-0.588,0.382-0.922,0.382C67.61,27.022,67.276,26.894,67.022,26.64z M71.917,54.522c0.509,0.509,0.509,1.334,0,1.843  c-0.255,0.255-0.588,0.382-0.922,0.382c-0.334,0-0.667-0.127-0.922-0.382l-3.051-3.051c-0.509-0.509-0.509-1.334,0-1.843  c0.509-0.509,1.334-0.509,1.844,0L71.917,54.522z M37.296,23.589c-0.509-0.509-0.509-1.334,0-1.843c0.509-0.509,1.334-0.509,1.844,0  l3.051,3.051c0.509,0.509,0.509,1.334,0,1.843c-0.255,0.255-0.588,0.382-0.922,0.382c-0.334,0-0.667-0.127-0.922-0.382  L37.296,23.589z M79.087,39.056c0,0.72-0.584,1.304-1.304,1.304h-4.315c-0.72,0-1.304-0.584-1.304-1.304s0.584-1.304,1.304-1.304  h4.315C78.503,37.752,79.087,38.336,79.087,39.056z M37.048,39.056c0,0.72-0.584,1.304-1.304,1.304h-4.315  c-0.72,0-1.304-0.584-1.304-1.304s0.584-1.304,1.304-1.304h4.315C36.464,37.752,37.048,38.336,37.048,39.056z M42.191,51.471  c0.509,0.509,0.509,1.334,0,1.843l-3.051,3.051c-0.255,0.255-0.588,0.382-0.922,0.382c-0.333,0-0.667-0.127-0.922-0.382  c-0.509-0.509-0.509-1.334,0-1.843l3.051-3.051C40.856,50.962,41.681,50.962,42.191,51.471z"/></svg>