<svg width="308" height="50" viewBox="0 0 308 50" fill="none" xmlns="http://www.w3.org/2000/svg">
<path d="M2.85742 27.582L11.4473 31.543C11.791 31.707 12.0371 31.8711 12.1855 32.0352C12.334 32.1914 12.4082 32.3711 12.4082 32.5742C12.4082 32.8086 12.3379 32.9961 12.1973 33.1367C12.0645 33.2773 11.877 33.3477 11.6348 33.3477C11.5254 33.3477 11.4043 33.3281 11.2715 33.2891C11.1387 33.25 10.9512 33.1719 10.709 33.0547L1.39258 28.707C1.36133 28.6992 1.32227 28.6836 1.27539 28.6602C0.556641 28.332 0.197266 27.9727 0.197266 27.582C0.197266 27.1914 0.548828 26.8398 1.25195 26.5273C1.31445 26.4961 1.36133 26.4727 1.39258 26.457L10.709 22.1797C10.9199 22.0781 11.0996 22.0078 11.248 21.9688C11.3965 21.9219 11.5254 21.8984 11.6348 21.8984C11.877 21.8984 12.0645 21.9648 12.1973 22.0977C12.3379 22.2305 12.4082 22.4102 12.4082 22.6367C12.4082 22.8477 12.334 23.0352 12.1855 23.1992C12.0371 23.3555 11.791 23.5117 11.4473 23.668L2.85742 27.582ZM62.6465 21.2539C59.1309 20.5156 57.127 19.5664 56.3887 18.5117C50.3066 10.0391 79.9434 10.1797 82.8613 10.0391C82.6504 11.1992 82.4043 12.5703 82.0527 14.3281C79.627 26.3867 74.4238 47.7617 64.9316 45.8633C56.8105 44.2461 32.377 18.582 36.1035 7.92969C37.4746 3.99219 46.1934 1.8125 54.2441 5.75C54.5957 5.92578 54.9473 6.13672 55.2637 5.89062C55.5801 5.64453 55.7207 5.08203 55.4043 4.87109C47.5293 0.265625 36.5605 2.19922 34.7324 7.47266C30.6895 19.0039 55.6855 45.4766 64.6504 47.2695C75.4434 49.4141 80.9629 27.1953 83.459 14.6094C83.7754 13.0273 84.0918 11.375 84.3379 10.0391C84.373 10.0391 84.4434 10.0039 84.4785 9.96875C87.5723 8.73828 99.3145 9.75781 102.479 10.0039C102.865 10.0391 103.217 9.72266 103.252 9.33594C103.463 6.69922 84.9355 8.24609 84.1621 8.5625C79.9434 8.70312 47.5996 8.66797 55.2285 19.3555C56.1777 20.6914 58.4629 21.8516 62.3301 22.6602C62.7168 22.7656 63.1035 22.5195 63.1738 22.0977C63.2793 21.7109 63.0332 21.3242 62.6465 21.2539ZM88.8379 29.8672C87.5723 28.1094 85.709 28.4609 84.1621 29.5508C83.4238 30.0781 82.791 30.7812 82.334 31.4492C81.8418 32.1875 81.5605 32.9961 81.6309 33.6289C81.7012 34.543 82.334 35.1055 83.6699 34.9648C86.0605 34.7188 88.1699 33.0664 89.541 31.6602C89.3652 33.9102 89.6113 34.8594 90.666 35C91.4395 35.1406 92.459 34.543 94.041 33.6289C95.1309 32.9961 96.502 32.1875 98.2246 31.3438C98.5762 31.168 98.752 30.7461 98.5762 30.3945C98.4004 30.043 97.9434 29.8672 97.5918 30.043C95.834 30.9219 94.3926 31.7305 93.3027 32.3633C92.002 33.1367 91.1582 33.6289 90.877 33.5938C90.7012 33.5586 90.8418 32.4336 91.2285 29.4805C91.2637 29.1992 91.1582 28.918 90.9121 28.7773C90.5957 28.5664 90.1387 28.6367 89.9277 28.9531C89.9277 28.9531 89.5762 29.4805 88.9434 30.1484C88.9434 30.043 88.9082 29.9375 88.8379 29.8672ZM88.1699 30.9922C87.0098 32.1523 85.3574 33.3477 83.5293 33.5234C83.2129 33.5586 83.0723 33.5234 83.0723 33.4883C83.0371 33.1719 83.2129 32.75 83.5293 32.2578C83.916 31.6953 84.4434 31.1328 85.0059 30.7461C85.9199 30.0781 87.0098 29.7969 87.6777 30.7109C87.7832 30.8867 87.959 30.9922 88.1699 30.9922ZM102.725 29.832C103.709 28.3555 103.99 27.3008 103.85 26.5977C103.639 25.6133 102.795 25.2969 101.705 25.5078C100.932 25.6484 99.9824 26.0703 99.1738 26.668C97.7324 27.7578 96.6426 29.375 97.2754 30.9922C97.627 31.9062 98.3301 32.8555 99.0684 33.8047C91.7559 36.9688 84.5488 40.8711 94.8848 40.625C100.791 40.5195 102.549 39.1484 102.514 37.2852C102.479 36.3711 101.951 35.3867 101.283 34.4023C105.221 32.8203 109.123 31.4492 109.158 31.4141C109.545 31.2734 109.721 30.8867 109.58 30.5C109.475 30.1133 109.053 29.9375 108.666 30.0781C108.631 30.0781 104.693 31.4844 100.439 33.2422L100.264 33.0312C99.5957 32.1172 98.8926 31.2031 98.6113 30.4648C98.2598 29.5859 99.0332 28.5664 100.018 27.8281C100.65 27.3711 101.389 27.0195 101.951 26.9141C102.232 26.8789 102.443 26.8438 102.443 26.9141C102.514 27.2305 102.268 27.8984 101.529 29.0234C101.283 29.3398 101.389 29.7969 101.705 30.043C102.021 30.2539 102.479 30.1484 102.725 29.832ZM101.072 37.3203C101.107 38.3398 99.666 39.0781 94.8496 39.1836C90.5254 39.2891 94.9199 37.0742 99.9473 34.9648C100.545 35.8438 101.037 36.6875 101.072 37.3203ZM131.553 29.8672C128.178 33.1016 126.596 34.0156 126.033 33.5586C125.471 33.1016 125.752 31.0977 126.35 28.5312C126.701 27.0547 126.42 26.3516 125.717 26.1758C124.592 25.9297 122.482 28.3906 120.619 30.5352C120.408 30.7812 120.232 31.0273 120.021 31.2383C120.76 29.9023 121.498 28.4961 121.322 27.5117C121.006 24.6992 118.65 24.0664 116.154 24.3828C114.959 24.5234 113.764 24.875 112.744 25.2969C111.689 25.7188 110.846 26.2109 110.459 26.6328C110.002 27.1602 109.932 27.6523 110.389 28.0742C112.674 30.1836 112.779 31.5547 112.111 32.293C111.725 32.7148 111.021 32.9609 110.354 33.0312H110.318C109.721 33.1016 109.193 32.9961 108.982 32.7148C108.701 32.4336 108.947 31.7656 110.248 30.6055C110.529 30.3242 110.564 29.8672 110.318 29.5859C110.037 29.2695 109.58 29.2344 109.299 29.5156C107.189 31.3789 107.119 32.7852 107.893 33.6641C108.42 34.2969 109.404 34.543 110.424 34.4727H110.494C111.479 34.4023 112.498 33.9805 113.201 33.2422C114.291 32.0469 114.432 30.043 111.76 27.4062C112.111 27.1602 112.639 26.8789 113.271 26.5977C114.186 26.2461 115.275 25.9297 116.33 25.7891C118.053 25.6133 119.705 25.9648 119.916 27.6875C119.916 27.6875 119.916 27.6875 119.916 27.7227C120.021 28.2852 119.283 29.6211 118.58 30.8516C117.771 32.293 117.068 33.6289 117.701 34.332C118.123 34.8242 118.65 34.6836 119.283 34.1211C119.881 33.5938 120.76 32.5742 121.709 31.4844C123.326 29.6211 125.119 27.5469 125.365 27.582C125.541 27.6172 125.049 27.7227 124.943 28.2148C124.24 31.2383 124.029 33.7695 125.154 34.6836C126.279 35.6328 128.529 34.7891 132.537 30.9219C132.818 30.6406 132.854 30.1836 132.572 29.9023C132.291 29.6211 131.834 29.5859 131.553 29.8672ZM163.615 35.1406C160.24 37.9883 158.729 39.9922 158.412 41.293C158.061 42.875 159.045 43.6133 160.803 43.7539C162.174 43.8594 164.037 43.543 166.006 42.9453C170.611 41.5391 175.744 38.5508 175.779 35.8438C175.814 32.7852 168.748 32.2227 161.33 31.625C155.248 31.168 148.955 30.6406 146.705 28.9883C145.826 28.3555 145.686 27.4414 146.635 26.1758C149.377 22.5195 156.338 17.2461 163.861 12.957C168.572 10.25 173.494 7.92969 177.713 6.62891C181.756 5.39844 185.061 5.08203 186.713 6.3125C186.994 6.52344 187.24 6.80469 187.451 7.15625C189.244 10.2852 172.404 25.9297 170.787 27.4766L170.682 27.5469C170.4 27.8281 170.4 28.25 170.682 28.4961C170.963 28.7773 171.42 28.7773 171.701 28.4961L171.807 28.4258C173.494 26.8086 191.002 10.5312 188.717 6.52344C188.436 6.03125 188.049 5.60938 187.627 5.29297C185.518 3.71094 181.756 3.99219 177.256 5.36328C172.967 6.69922 167.939 9.05469 163.123 11.7969C155.424 16.1914 148.287 21.6055 145.475 25.4023C143.963 27.4062 144.279 28.8828 145.791 30.0078C148.393 31.9414 154.932 32.4688 161.189 32.9609C167.939 33.4883 174.373 34.0156 174.338 35.8438C174.338 37.918 169.697 40.4141 165.584 41.6797C163.756 42.207 162.068 42.5234 160.908 42.418C160.17 42.3477 159.713 42.1016 159.818 41.5391C160.064 40.5195 161.471 38.7617 164.564 36.125C164.881 35.8789 164.881 35.457 164.635 35.1758C164.354 34.9297 163.896 34.8945 163.615 35.1406ZM201.408 29.9727C201.408 29.9727 193.357 31.9062 190.264 33.4883C190.58 32.4688 190.861 31.0625 190.229 29.5508C189.104 26.7734 185.377 30.9219 182.74 34.3672C183.092 33.2422 183.479 32.1523 183.83 31.0625C191.178 25.1562 195.502 14.8906 196.768 8.80859C197.225 6.38281 197.225 4.51953 196.732 3.71094C195.994 2.51562 194.729 2.79688 193.041 5.29297C190.439 9.08984 186.08 18.8984 179.928 38.4102C179.822 38.6914 179.963 39.043 180.209 39.2188C180.561 39.4297 181.018 39.3242 181.229 39.0078C181.229 38.9727 188.154 28.2852 188.928 30.1133C189.49 31.4492 188.998 32.8906 188.682 33.6992C188.471 34.2969 188.33 34.7188 188.576 35.1055C188.928 35.668 189.49 35.6328 190.58 34.9648C193.006 33.4883 201.725 31.3789 201.76 31.3789C202.146 31.2734 202.393 30.8867 202.287 30.5C202.182 30.1133 201.795 29.8672 201.408 29.9727ZM194.236 6.10156C195.08 4.87109 195.467 4.37891 195.537 4.48438C195.818 4.97656 195.748 6.45312 195.326 8.52734C194.236 13.8711 190.721 22.5547 184.744 28.3203C189.068 15.8398 192.197 9.05469 194.236 6.10156ZM206.049 27.6875C205.697 27.582 205.275 27.6172 204.854 27.7227C204.08 27.8984 203.166 28.3906 202.393 29.0234C201.584 29.6562 200.916 30.4648 200.67 31.2734C200.564 31.6953 200.529 32.082 200.635 32.4688C201.127 34.7188 204.889 31.8711 206.787 30.2188C206.998 31.625 207.631 33.418 209.67 33.0664C211.428 32.75 213.326 30.9219 214.662 29.6562C215.189 29.0938 215.576 28.707 215.611 28.6719C215.154 29.832 214.064 33.6641 214.064 33.6641C213.959 34.0508 214.205 34.4375 214.592 34.543C214.908 34.6133 215.225 34.4727 215.365 34.2266C215.857 33.5938 220.92 27.1602 220.955 28.0742C221.061 31.168 221.518 32.8906 222.959 33.5234C224.365 34.1211 226.404 33.418 229.639 31.2734C229.99 31.0625 230.061 30.6406 229.85 30.2891C229.639 29.9727 229.182 29.8672 228.865 30.0781C226.088 31.9414 224.436 32.6094 223.557 32.2227C222.748 31.8359 222.432 30.3594 222.361 27.8633C222.256 24.3477 218.564 28.0391 216.209 30.8516C216.807 29.0586 217.826 26.7383 217.018 26.2461C216.385 26.0703 214.416 27.8633 213.643 28.6016C212.447 29.7617 210.76 31.4141 209.424 31.6602C207.947 31.9062 208.158 28.707 208.158 28.707C208.193 28.5312 208.123 28.3203 207.982 28.1797C207.701 27.8984 207.244 27.8633 206.963 28.1445C206.963 28.1445 206.787 28.2852 206.576 28.5312C206.611 28.1797 206.4 27.793 206.049 27.6875ZM205.908 29.0938C204.502 30.3945 202.111 32.5391 202.041 32.1172C202.006 32.0117 202.006 31.8711 202.041 31.6953C202.217 31.168 202.709 30.6055 203.271 30.1133C203.904 29.6211 204.607 29.2344 205.17 29.0938C205.381 29.0586 205.557 29.0586 205.627 29.0938C205.732 29.0938 205.838 29.1289 205.908 29.0938ZM230.131 27.5469C230.096 27.582 226.861 33.5586 227.846 34.6484C228.268 35.1406 228.795 35 229.428 34.4375C230.025 33.9102 230.904 32.8906 231.854 31.8008C232.029 31.5898 235.088 28.5312 235.088 28.5312C234.385 31.5547 234.174 34.0859 235.264 35C236.424 35.9492 238.674 35.0703 242.682 31.2383C242.963 30.957 242.963 30.5 242.717 30.2188C242.436 29.9375 241.979 29.9023 241.697 30.1836C238.322 33.418 236.74 34.332 236.178 33.875C235.615 33.418 235.896 31.4141 236.494 28.8477C236.811 27.3711 236.529 26.668 235.826 26.4922C234.736 26.2461 232.627 28.707 230.764 30.8516C230.201 31.4844 229.674 32.1172 229.217 32.6094C229.885 30.9922 231.396 28.25 231.396 28.25C231.572 27.8984 231.432 27.4414 231.08 27.2656C230.729 27.0898 230.307 27.1953 230.131 27.5469ZM264.76 29.8672C261.385 33.1016 259.803 34.0156 259.24 33.5586C258.678 33.1016 258.959 31.0977 259.557 28.5312C259.908 27.0547 259.627 26.3516 258.924 26.1758C257.799 25.9297 255.689 28.3906 253.826 30.5352C253.615 30.7812 253.439 31.0273 253.229 31.2383C253.967 29.9023 254.705 28.4961 254.529 27.5117C254.213 24.6992 251.857 24.0664 249.361 24.3828C248.166 24.5234 246.971 24.875 245.951 25.2969C244.896 25.7188 244.053 26.2109 243.666 26.6328C243.209 27.1602 243.139 27.6523 243.596 28.0742C245.881 30.1836 245.986 31.5547 245.318 32.293C244.932 32.7148 244.229 32.9609 243.561 33.0312H243.525C242.928 33.1016 242.4 32.9961 242.189 32.7148C241.908 32.4336 242.154 31.7656 243.455 30.6055C243.736 30.3242 243.771 29.8672 243.525 29.5859C243.244 29.2695 242.787 29.2344 242.506 29.5156C240.396 31.3789 240.326 32.7852 241.1 33.6641C241.627 34.2969 242.611 34.543 243.631 34.4727H243.701C244.686 34.4023 245.705 33.9805 246.408 33.2422C247.498 32.0469 247.639 30.043 244.967 27.4062C245.318 27.1602 245.846 26.8789 246.479 26.5977C247.393 26.2461 248.482 25.9297 249.537 25.7891C251.26 25.6133 252.912 25.9648 253.123 27.6875C253.123 27.6875 253.123 27.6875 253.123 27.7227C253.229 28.2852 252.49 29.6211 251.787 30.8516C250.979 32.293 250.275 33.6289 250.908 34.332C251.33 34.8242 251.857 34.6836 252.49 34.1211C253.088 33.5938 253.967 32.5742 254.916 31.4844C256.533 29.6211 258.326 27.5469 258.572 27.582C258.748 27.6172 258.256 27.7227 258.15 28.2148C257.447 31.2383 257.236 33.7695 258.361 34.6836C259.486 35.6328 261.736 34.7891 265.744 30.9219C266.025 30.6406 266.061 30.1836 265.779 29.9023C265.498 29.6211 265.041 29.5859 264.76 29.8672ZM284.33 35.3164C284.158 35.707 283.994 35.9727 283.838 36.1133C283.689 36.2539 283.51 36.3242 283.299 36.3242C283.08 36.3242 282.889 36.2422 282.725 36.0781C282.561 35.9219 282.479 35.7305 282.479 35.5039C282.479 35.4414 282.49 35.3672 282.514 35.2812C282.537 35.2031 282.568 35.1172 282.607 35.0234L289.92 19.2617C290.115 18.8555 290.287 18.582 290.436 18.4414C290.584 18.293 290.764 18.2188 290.975 18.2188C291.209 18.2188 291.408 18.2969 291.572 18.4531C291.736 18.6094 291.818 18.7969 291.818 19.0156C291.818 19.0781 291.807 19.1484 291.783 19.2266C291.768 19.3047 291.74 19.3789 291.701 19.4492L284.33 35.3164ZM304.51 27.582L295.943 23.668C295.584 23.5039 295.33 23.3438 295.182 23.1875C295.033 23.0234 294.959 22.8398 294.959 22.6367C294.959 22.4102 295.025 22.2305 295.158 22.0977C295.299 21.9648 295.486 21.8984 295.721 21.8984C295.838 21.8984 295.967 21.9219 296.107 21.9688C296.256 22.0078 296.439 22.0781 296.658 22.1797L305.975 26.457C306.006 26.4727 306.053 26.4961 306.115 26.5273C306.818 26.8398 307.17 27.1914 307.17 27.582C307.17 27.9648 306.826 28.3164 306.139 28.6367C306.061 28.668 306.006 28.6914 305.975 28.707L296.658 33.0547L296.611 33.0781C296.205 33.2578 295.908 33.3477 295.721 33.3477C295.486 33.3477 295.299 33.2773 295.158 33.1367C295.025 32.9961 294.959 32.8086 294.959 32.5742C294.959 32.3711 295.033 32.1914 295.182 32.0352C295.33 31.8711 295.584 31.707 295.943 31.543L304.51 27.582Z" fill="white"/>
</svg>
