<?xml version="1.0" encoding="utf-8"?>
<!-- Generator: Adobe Illustrator 19.0.0, SVG Export Plug-In . SVG Version: 6.00 Build 0)  -->
<svg version="1.1" id="layer" xmlns="http://www.w3.org/2000/svg" xmlns:xlink="http://www.w3.org/1999/xlink" x="0px" y="0px"
	 viewBox="-153 -46 652 652" style="enable-background:new -153 -46 652 652;" xml:space="preserve">
<style type="text/css">
	.st0{fill:#BE2BBB;}
	.st1{fill:#595454;}
</style>
<title>Artboard</title>
<desc>Created with Sketch.</desc>
<path class="st0" d="M-79,291.1L-79,291.1c0,2,1.6,3.7,3.7,3.7c2,0,3.6-1.7,3.6-3.7v-24.8c0-2-1.6-3.7-3.6-3.7
	c-2.1,0-3.7,1.7-3.7,3.7V291.1z M-90.8,286.2L-90.8,286.2c0,2.1,1.6,3.7,3.7,3.7c2.1,0,3.9-1.6,3.9-3.7v-36.7c0-2.1-1.7-3.9-3.9-3.9
	c-2.1,0-3.7,1.7-3.7,3.9V286.2z M-102.7,283.3L-102.7,283.3c0,2.1,1.8,3.9,3.9,3.9c2,0,3.8-1.7,3.8-3.9v-40.9c0-2-1.8-3.7-3.8-3.7
	c-2.1,0-3.9,1.7-3.9,3.7V283.3z M-114.5,284.2L-114.5,284.2c0,2.1,1.7,3.9,3.9,3.9c2.1,0,3.8-1.7,3.8-3.9v-30.3
	c0-2.1-1.6-3.9-3.8-3.9c-2.1,0-3.9,1.7-3.9,3.9V284.2z M-103.5,318.8L-103.5,318.8c-0.5,1.4-1.9,2.1-3.3,2.1c-0.6,0-1.1-0.1-1.6-0.4
	c-11.7-5.6-17.9-15.6-17.9-28.8v-14.8c0-2.1,1.6-3.7,3.8-3.7c2,0,3.6,1.6,3.6,3.7v14.8c0,10.4,4.6,17.7,13.7,22.2
	C-103.4,314.8-102.5,317-103.5,318.8"/>
<path class="st1" d="M394.8,265.9L394.8,265.9c0,2.7-1.2,4-3.4,4c-2.1,0-3.4-1.2-3.4-4c0-2.6,1.3-4,3.4-4
	C393.6,261.9,394.8,263.3,394.8,265.9 M454.5,293.4L454.5,293.4c0,8.4-3,11.1-7.8,11.1s-7.6-2.7-7.6-11.1V289c0-8.2,2.9-11,7.6-11
	s7.8,2.7,7.8,11V293.4z M447.3,273.1L447.3,273.1c-3.6,0-6.5,1.7-8,4.9h-0.2v-4.2v-11.2h-5.5v46.3h5.5v-4.2h0.2c1.5,3,4.4,4.9,8,4.9
	c8.8,0,12.8-6,12.8-15.6v-5.1C460.1,279.1,456.1,273.1,447.3,273.1 M422.5,293.4L422.5,293.4c0,8.4-2.9,11.1-7.6,11.1
	c-4.8,0-7.6-2.7-7.6-11.1V289c0-8.2,2.9-11,7.6-11c4.8,0,7.6,2.7,7.6,11V293.4z M415.5,273.1L415.5,273.1c-3.6,0-6.5,1.7-8,4.9h-0.2
	v-4.2v-11.2h-5.5v46.3h5.5v-4.2h0.2c1.5,3,4.4,4.9,8,4.9c8.8,0,12.6-6,12.6-15.6v-5.1C428.1,279.1,424.2,273.1,415.5,273.1
	 M388.7,273.7L388.7,273.7h5.5v35.1h-5.5V273.7z M376,273.7L376,273.7h5.6v35.1H376v-4.5h-0.3c-1.2,2.7-4.1,5.1-8.6,5.1
	c-6.5,0-10.5-3.7-10.5-12v-23.7h5.6v23c0,5.6,2.3,8,6.5,8c4,0,7.3-2.6,7.3-9.5V273.7z M337.3,304.6L337.3,304.6
	c-4.8,0-7.6-2.7-7.6-11.1V289c0-8.2,2.9-11,7.6-11c4.8,0,7.6,2.7,7.6,11v4.5C345,301.8,342.1,304.6,337.3,304.6 M345,278L345,278
	h-0.3c-1.5-3.1-4.4-4.9-8-4.9c-8.8,0-12.6,6-12.6,15.6v5.1c0,9.6,3.9,15.6,12.6,15.6c3.6,0,6.5-1.9,8-4.9h0.3v4.2V320h5.5v-46.3H345
	V278z M319.8,296.6L319.8,296.6c0,8.2-5.6,12.9-14.4,12.9c-8.2,0-15-4-15.9-12.9h6.1c0.8,5.2,4.5,7.7,9.6,7.7c5.9,0,8.5-3.5,8.5-7.5
	c0-13.1-23.5-5.5-23.5-22.7c0-7.4,5.9-12.2,14.1-12.2c7.9,0,14.5,3.9,14.9,13h-6.1c-0.5-5.6-4.1-7.9-8.9-7.9c-5.6,0-8,3.4-8,6.9
	C296.3,285.5,319.8,278.6,319.8,296.6 M275.7,299.1L275.7,299.1c0,6.7-5,10.4-12.4,10.4c-7.4,0-12.2-3.1-12.7-10.4h5.6
	c0.1,4.4,3.4,5.7,7.1,5.7c3.8,0,6.8-1.6,6.8-5.2c0-8.6-19-2.7-19-16.5c0-5.7,4.1-10,11.9-10c7.1,0,11.7,3.5,12.4,10.2h-5.6
	c-0.3-4-3.1-5.6-6.8-5.6c-4,0-6.5,1.9-6.5,5.4C256.5,291.3,275.7,286.2,275.7,299.1 M246,273.7L246,273.7h1.8v5.5h-1.5
	c-5.5,0-9.1,2.7-9.1,10.1v19.5h-5.5v-35.1h5.5v6.4h0.3C238.3,276.9,241,273.7,246,273.7 M212.7,278L212.7,278c4.5,0,7,2.6,7,10.7
	h-14.6C205.1,280.6,208.1,278,212.7,278 M212.7,273.1L212.7,273.1c-8.6,0-13.3,6.2-13.3,15.6v5.1c0,9.6,4.6,15.6,13.3,15.6
	c7,0,11-3.9,12.5-10.4h-5.7c-1,4-3.3,5.5-6.8,5.5c-4.8,0-7.6-2.7-7.6-11.1v-0.4h20.3v-4.4C225.3,279.3,221.3,273.1,212.7,273.1
	 M192.2,273.7L192.2,273.7h5.6L182.2,320h-5.8l4-11l-11.4-35.3h5.9l8.4,27.3h0.3L192.2,273.7z M155.7,262.5L155.7,262.5h9.5v46.3
	h-5.9V269H159l-11.9,32.1H140L128.2,269h-0.4v39.8h-5.7v-46.3h9.9l11.6,32.2h0.4L155.7,262.5z M96.6,262.5L96.6,262.5h5.6v46.3h-5.6
	V262.5z M85.1,293.4L85.1,293.4c0,8.4-2.9,11.1-7.6,11.1s-7.6-2.7-7.6-11.1V289c0-8.2,2.9-11,7.6-11s7.6,2.7,7.6,11V293.4z
	 M77.5,273.1L77.5,273.1c-8.6,0-13.3,6-13.3,15.6v5.1c0,9.6,4.6,15.6,13.3,15.6c8.6,0,13.3-6,13.3-15.6v-5.1
	C90.7,279.1,86.1,273.1,77.5,273.1 M53.5,273.7L53.5,273.7h7.6v4.9h-7.6v19.3c0,5.1,1.4,6.2,4.7,6.2c0.9,0,2-0.1,2.9-0.2v4.7
	c-1.1,0.2-2.5,0.4-3.5,0.4c-6.9,0-9.6-2.7-9.6-10.2v-20.2h-5.9v-4.9H48v-11.2h5.5V273.7z M40.7,299.1L40.7,299.1
	c0,6.7-5,10.4-12.4,10.4c-7.4,0-12.3-3.1-12.8-10.4h5.6c0.1,4.4,3.4,5.7,7.1,5.7c3.7,0,6.7-1.6,6.7-5.2c0-8.6-19-2.7-19-16.5
	c0-5.7,4.1-10,11.9-10c7.1,0,11.9,3.5,12.4,10.2h-5.6c-0.2-4-3.1-5.6-6.7-5.6c-4,0-6.5,1.9-6.5,5.4
	C21.5,291.3,40.7,286.2,40.7,299.1 M10.5,265.9L10.5,265.9c0,2.7-1.2,4-3.4,4s-3.4-1.2-3.4-4c0-2.6,1.2-4,3.4-4
	S10.5,263.3,10.5,265.9 M4.3,273.7L4.3,273.7h5.5v35.1H4.3V273.7z M-2.3,273.7L-2.3,273.7h1.6v5.5H-2c-5.5,0-9.1,2.7-9.1,10.1v19.5
	h-5.6v-35.1h5.6v6.4h0.2C-9.9,276.9-7.3,273.7-2.3,273.7 M-27.9,295.7L-27.9,295.7c0,5.7-4.5,7.9-11,7.9h-7.6V287h7.6
	c6.5,0,11,2.1,11,8.1V295.7z M-46.5,267.7L-46.5,267.7h6.9c6.4,0,9.7,2.5,9.7,6.9v0.5c0,5.2-4.6,7-10.6,7h-6V267.7z M-32,284.1
	L-32,284.1v-0.2c4.9-1.6,7.9-4.6,7.9-9.7v-0.7c0-6-4.9-10.9-14.7-10.9h-13.6v46.3h14.6c9.6,0,16.1-4.9,16.1-12.5v-0.5
	C-21.8,289.8-25.3,285.5-32,284.1 M461.3,271.9L461.3,271.9v-8.2h2.5v-1.1h-6.1v1.1h2.4v8.2H461.3z M473.7,271.9L473.7,271.9v-9.4
	h-2l-2.3,7.2h-0.1l-2.3-7.2H465v9.4h1.2v-8l2.6,8h1.1l2.5-8h0.1v8H473.7z"/>
</svg>
