<svg width="400" height="400" viewBox="0 0 400 400" fill="none" xmlns="http://www.w3.org/2000/svg">
<g clip-path="url(#clip0_7_8)">
<path fill-rule="evenodd" clip-rule="evenodd" d="M90.8801 154.88C90.5471 155.213 90.3981 157.327 90.3941 161.78C90.3861 169.948 90.8271 169.393 84.3151 169.433C73.3081 169.502 66.1431 173.027 62.5951 180.119C59.6941 185.918 60.7991 195.889 64.7871 199.888C69.6511 204.765 80.9951 205.001 87.6091 200.361C90.4731 198.352 91.2001 198.471 91.2001 200.945C91.2001 202.189 91.3881 202.786 91.8331 202.957C92.9751 203.395 97.8221 203.218 98.3201 202.72C98.8291 202.211 99.0571 156.335 98.5571 155.033C98.2511 154.234 91.6571 154.103 90.8801 154.88ZM250.228 154.755C249.692 155.622 249.937 202.513 250.479 202.865C250.766 203.052 252.53 203.158 254.4 203.102L257.8 203V178.8V154.6L254.133 154.485C252.084 154.421 250.36 154.541 250.228 154.755ZM165.28 157.68C164.74 158.22 164.631 162.715 165.14 163.516C165.378 163.892 166.49 164 169.233 163.916L173 163.8L173.119 161.064C173.192 159.391 173.056 158.109 172.77 157.764C172.167 157.037 165.992 156.968 165.28 157.68ZM191.909 157.824C191.786 157.948 190.573 158.206 189.215 158.398C185.623 158.906 185.6 158.943 185.6 164.241C185.6 169.557 185.351 169.313 190.601 169.119L193.8 169L193.911 163.3L194.022 157.6H193.078C192.558 157.6 192.032 157.701 191.909 157.824ZM131.917 170.151C120.214 173.357 116.006 182.565 123.091 189.464C125.188 191.506 125.192 191.685 123.2 193.846C118.358 199.099 122.821 202.605 137.6 205.158C147.167 206.811 149.806 207.687 150.923 209.578C153.661 214.213 148.633 216.33 134.059 216.678C121.533 216.976 116.754 215.31 114.327 209.798C113.925 208.884 113.753 204.095 113.6 189.6L113.4 170.6H110H106.6L106.496 190.706L106.393 210.812L107.41 212.82C109.328 216.604 111.963 218.523 118 220.532C121.601 221.73 140.72 221.818 145.6 220.66C157.277 217.888 159.926 216.161 159.981 211.287C160.042 205.856 155.711 203.585 139.6 200.601C132.271 199.243 129.282 197.166 130.964 194.599C131.909 193.157 133.397 192.695 136.2 192.974C149.793 194.326 159.135 187.323 156.135 178.031C155.331 175.542 155.603 175.13 158.26 174.818C160.461 174.56 161.015 173.872 160.639 171.865L160.364 170.4H153.608C149.581 170.4 146.397 170.22 145.726 169.954C143.327 169.004 135.704 169.113 131.917 170.151ZM219.4 169.595C211.632 170.948 210.605 171.487 211.044 173.981C211.419 176.115 212.036 176.605 213.45 175.893C219.473 172.857 230.247 173.693 232.749 177.39C235.669 181.704 234.256 183.788 228.151 184.169C215.172 184.98 208.367 188.854 208.06 195.609L207.918 198.739L209.659 200.47C214.057 204.841 224.392 204.888 230.675 200.565C233.32 198.745 234.545 198.815 234.733 200.798C234.935 202.93 235.366 203.201 238.549 203.194C242.574 203.185 242.281 204.365 242.025 189.2L241.8 175.8L240.657 174.306C237.632 170.352 227.697 168.15 219.4 169.595ZM165.043 171.033C164.548 172.322 164.772 202.212 165.28 202.72C165.925 203.365 172.075 203.365 172.72 202.72C173.409 202.031 173.409 171.569 172.72 170.88C171.943 170.103 165.349 170.234 165.043 171.033ZM177.566 171.489C176.712 173.736 177.538 174.4 181.191 174.4H184.4V172.4V170.4H181.19C178.065 170.4 177.969 170.429 177.566 171.489ZM195.405 171.579C194.813 174.275 195.114 174.437 200.488 174.312C205.895 174.187 206.532 173.874 205.776 171.721L205.382 170.6L200.525 170.488L195.669 170.376L195.405 171.579ZM142.014 173.997C148.479 175.793 150.839 182.159 146.567 186.281C142.19 190.505 131.46 189.606 128.895 184.801C125.439 178.326 133.55 171.646 142.014 173.997ZM86.3411 174.384C90.5301 174.989 90.5221 174.971 90.3181 183.2C90.1611 189.499 90.0521 190.38 89.2301 192C84.6431 201.036 72.7781 201.072 70.2481 192.058C67.1681 181.08 74.7871 172.713 86.3411 174.384ZM186.076 175.937C185.66 176.207 185.577 178.502 185.676 187.071L185.8 197.865L187.015 199.833C188.997 203.042 190.113 203.4 198.132 203.4C205.805 203.4 206 203.319 206 200.124V198.4H202.187C194.546 198.4 194.271 197.957 194 185.2L193.8 175.8L190.2 175.698C188.22 175.642 186.364 175.75 186.076 175.937ZM233.004 188.154C235.617 190.064 231.908 196.155 226.893 198.194C218.576 201.573 211.664 194.478 219.055 190.147C222.303 188.243 231.357 186.949 233.004 188.154ZM225.561 212.827C218.69 213.837 214.4 218.671 214.4 225.402V227.6H218.4C222.379 227.6 222.4 227.595 222.4 226.62C222.4 218.879 230.252 214.982 239.684 218.043C241.938 218.774 244.389 215.405 242.768 213.804C241.581 212.632 230.982 212.03 225.561 212.827ZM195.214 213.574C194.514 214.882 194.654 260.981 195.36 261.567C195.721 261.866 197.246 261.99 199.66 261.916L203.4 261.8L203.511 238.2C203.571 225.22 203.523 214.195 203.403 213.7C203.091 212.412 195.895 212.301 195.214 213.574ZM289.384 213.3C289.279 213.575 289.239 224.6 289.296 237.8L289.4 261.8L292.94 261.916C295.205 261.991 296.681 261.865 297.04 261.567C297.806 260.931 297.884 214.044 297.12 213.28C296.446 212.606 289.642 212.623 289.384 213.3ZM332.556 213.369C332.436 213.682 332.307 216.848 332.269 220.405C332.181 228.627 332.365 228.4 325.791 228.4C310.465 228.4 302.8 234.659 302.8 247.175C302.8 253.314 303.582 255.673 306.586 258.599C311.811 263.688 324.162 263.871 329.256 258.935C331.12 257.128 332.082 257.266 332.547 259.404C332.738 260.282 332.96 261.232 333.041 261.516C333.149 261.898 334.094 262.001 336.693 261.916L340.2 261.8L340.311 238.2C340.371 225.22 340.323 214.195 340.203 213.7C339.931 212.579 332.975 212.278 332.556 213.369ZM182.812 215.899C179.364 216.06 179.212 216.199 179.212 219.2C179.212 222.405 179.276 222.45 183.633 222.316L187.4 222.2L187.52 219.41C187.634 216.769 187.051 215.314 186.024 215.679C185.901 215.723 184.455 215.822 182.812 215.899ZM148.8 228.83C141.491 230.469 136.452 234.5 134.459 240.302C130.6 251.537 137.166 261.091 149.6 262.335C165.515 263.926 175.942 255.154 174.379 241.49C173.221 231.367 162.079 225.852 148.8 228.83ZM260.303 228.806C251.055 231.119 246.988 236.382 247.017 246C247.038 253.167 248.432 256.094 253.465 259.539C259.321 263.546 281.532 263.375 281.924 259.318C282.201 256.457 281.058 255.926 276.935 257C267.796 259.38 258.866 256.879 256.229 251.2C253.567 245.466 253.626 245.44 269.867 245.2L283.4 245L283.519 242.008C283.921 231.945 272.874 225.663 260.303 228.806ZM179.724 229.3C179.266 230.007 179.204 260.441 179.658 261.3C180.037 262.016 185.416 262.353 186.967 261.757C187.615 261.509 187.982 231.062 187.357 229.433C187.043 228.614 180.244 228.496 179.724 229.3ZM208.65 229.118C206.99 231.805 208.506 233.923 211.702 233.383L213.239 233.123L213.12 231.062L213 229L210.936 228.88C209.8 228.815 208.772 228.922 208.65 229.118ZM223.909 230.692C223.662 233.435 223.909 233.6 228.275 233.6C234.131 233.6 233.6 232.187 233.6 247.765C233.6 263.278 233.224 262.086 238.061 261.917L241.4 261.8V245.4V229L232.741 228.892L224.082 228.785L223.909 230.692ZM269.587 233.072C273.129 234.384 275.2 236.768 275.2 239.536C275.2 241.433 274.014 241.666 265.072 241.524C255.908 241.379 255.503 241.236 256.339 238.444C257.677 233.979 264.531 231.199 269.587 233.072ZM160.357 234.578C168.787 238.85 167.474 253.537 158.387 256.62C149.672 259.576 142.655 254.607 142.645 245.472C142.638 238.456 145.181 235.114 151.8 233.444C153.68 232.97 158.423 233.598 160.357 234.578ZM330.599 233.774C333.635 235.042 332.975 248.06 329.637 252.748C325.908 257.985 319.058 259.151 314.564 255.314C310.193 251.58 310.402 241.001 314.934 236.59C318.19 233.421 326.275 231.967 330.599 233.774ZM214.495 248.3L214.6 261.8L218.193 261.917C222.964 262.072 222.619 263.199 222.489 247.861L222.379 234.8H218.384H214.389L214.495 248.3Z" fill="#101010"/>
<path fill-rule="evenodd" clip-rule="evenodd" d="M106.668 129.944C105.762 130.301 105.534 162.757 106.43 163.836C106.915 164.421 142.687 164.725 144.167 164.157C144.996 163.839 145.144 130.904 144.32 130.08C143.783 129.543 108.014 129.414 106.668 129.944Z" fill="#F7A80F"/>
<path fill-rule="evenodd" clip-rule="evenodd" d="M90.6999 154.032C90.0769 154.395 89.9999 155.183 89.9999 161.191C89.9999 169.506 90.1699 169.226 85.2979 168.949C83.3739 168.84 81.0189 168.897 80.0649 169.075C78.8249 169.307 79.9419 169.399 83.9829 169.395C90.8829 169.388 90.3859 169.979 90.3939 161.78C90.3979 157.327 90.5469 155.213 90.8799 154.88C91.6569 154.103 98.2509 154.234 98.5569 155.033C99.0569 156.335 98.8289 202.211 98.3199 202.72C97.8219 203.218 92.9749 203.395 91.8329 202.957C91.3879 202.786 91.1999 202.189 91.1999 200.945C91.1999 198.471 90.4729 198.352 87.6089 200.361C78.9889 206.408 66.2399 204.308 62.3519 196.2C61.7189 194.88 61.2019 194.16 61.2039 194.6C61.2099 195.94 63.4719 199.442 65.2859 200.921C70.9579 205.542 80.9359 205.474 87.9109 200.767C90.1179 199.277 90.7159 199.461 90.8759 201.678L90.9999 203.4L94.5399 203.516C96.8049 203.591 98.2809 203.465 98.6399 203.167C99.6609 202.32 99.4539 154.564 98.4259 154.014C97.4339 153.483 91.6189 153.497 90.6999 154.032ZM249.862 154.331C249.005 155.278 248.83 202.27 249.68 203.12C250.565 204.005 257.887 203.758 258.386 202.826C259.144 201.41 258.939 154.996 258.171 154.229C257.196 153.253 250.766 153.333 249.862 154.331ZM257.8 178.8V203L254.4 203.102C252.53 203.158 250.766 203.052 250.479 202.865C249.937 202.513 249.692 155.622 250.228 154.755C250.36 154.541 252.084 154.421 254.133 154.485L257.8 154.6V178.8ZM164.834 157.537C164.371 158.402 164.239 162.714 164.643 163.767C164.996 164.688 172.451 164.692 173.371 163.771C174.083 163.06 174.254 158.621 173.609 157.6C172.942 156.543 165.395 156.489 164.834 157.537ZM172.77 157.764C173.056 158.109 173.192 159.391 173.119 161.064L173 163.8L169.233 163.916C166.49 164 165.378 163.892 165.14 163.516C164.631 162.715 164.74 158.22 165.28 157.68C165.992 156.968 172.167 157.037 172.77 157.764ZM190.4 157.589C189.85 157.779 188.731 158.046 187.913 158.183C185.419 158.6 185.2 159.083 185.2 164.18C185.2 169.573 185.282 169.468 180.883 169.662C177.199 169.824 176.812 170.084 176.812 172.4C176.812 174.694 177.15 174.904 181.263 175.164L185 175.4L185.2 187L185.4 198.6L186.599 200.342C188.847 203.61 193.692 204.858 201.238 204.111C205.845 203.655 206.4 203.293 206.4 200.747C206.4 198.61 207.035 198.49 208.725 200.308C213.364 205.298 224.238 205.739 230.712 201.2C232.88 199.68 234 199.62 234 201.026C234 203.325 234.49 203.6 238.59 203.6C241.011 203.6 242.455 203.435 242.639 203.137C243.185 202.254 242.791 179.043 242.191 176.733C240.678 170.899 230.922 167.462 220.438 169.069C218.802 169.319 219.873 169.402 224.838 169.407C233.727 169.417 237.902 170.705 240.637 174.28L241.8 175.8L242.025 189.2C242.281 204.365 242.574 203.185 238.549 203.194C235.366 203.201 234.935 202.93 234.733 200.798C234.545 198.815 233.32 198.745 230.675 200.565C224.392 204.888 214.057 204.841 209.659 200.47L207.918 198.739L208.06 195.609C208.367 188.854 215.172 184.98 228.151 184.169C234.256 183.788 235.669 181.704 232.749 177.39C230.247 173.693 219.473 172.857 213.45 175.893C212.026 176.61 211.419 176.114 211.031 173.915C210.729 172.202 211.743 170.806 213.3 170.792C213.795 170.788 215.1 170.519 216.2 170.195C218.111 169.631 218.129 169.613 216.6 169.794C211.178 170.436 210.195 171.12 210.573 173.99C210.888 176.375 211.585 177.065 213.074 176.464C217.14 174.823 225.914 174.274 229.354 175.446C231.951 176.331 233.297 178.333 233.124 181.056L233 183L230.8 183.276C229.59 183.428 227.34 183.665 225.8 183.803C213.994 184.86 207.873 189.114 207.1 196.8C207.002 197.776 206.914 197.803 203.4 197.906C197.996 198.066 197.281 198.273 201.9 198.34L206 198.4V200.124C206 203.319 205.805 203.4 198.132 203.4C190.113 203.4 188.997 203.042 187.015 199.833L185.8 197.865L185.677 186.946L185.553 176.027L186.478 175.795C186.987 175.667 188.842 175.616 190.601 175.681L193.8 175.8L194 185.2C194.169 193.165 194.307 194.797 194.904 195.888C195.583 197.13 197.06 198.273 197.464 197.869C197.572 197.761 197.319 197.565 196.902 197.432C195.131 196.87 194.8 194.98 194.8 185.419C194.8 174.114 194.225 175.2 200.214 175.2C205.846 175.2 206.4 174.949 206.4 172.4C206.4 169.868 205.827 169.6 200.42 169.6C194.553 169.6 194.852 169.947 194.712 162.973L194.6 157.4L193 157.322C192.12 157.279 190.95 157.4 190.4 157.589ZM193.911 163.3L193.8 169L190.601 169.119C185.351 169.313 185.6 169.557 185.6 164.241C185.6 158.943 185.623 158.906 189.215 158.398C190.573 158.206 191.786 157.948 191.909 157.824C192.032 157.701 192.558 157.6 193.078 157.6H194.022L193.911 163.3ZM135 168.991C134.78 169.062 133.25 169.426 131.6 169.801C120.231 172.384 115.722 182.026 122.422 189.424C124.341 191.543 124.682 193.2 123.2 193.2C122.529 193.2 120.8 196.162 120.8 197.313C120.8 199.642 122.699 201.785 125.6 202.73C128.525 203.682 135.024 205.198 135.991 205.154C136.798 205.116 136.84 205.072 136.2 204.929C131.704 203.927 125.186 202.182 124.335 201.753C121.134 200.138 120.631 196.634 123.2 193.846C125.192 191.685 125.188 191.506 123.091 189.464C120.686 187.123 119.886 185.228 119.906 181.93C119.955 174.216 128.82 168.797 140.6 169.281C143.02 169.38 144.46 169.334 143.8 169.178C142.6 168.895 135.754 168.749 135 168.991ZM75.5999 170C75.2699 170.213 74.5959 170.391 74.1009 170.394C70.8719 170.416 64.4339 175.3 62.2919 179.353C60.6139 182.527 59.7389 190.531 60.7999 193C61.0159 193.502 61.1539 191.769 61.1719 188.354C61.2049 181.976 62.2859 179.02 65.8949 175.443C67.7199 173.634 72.7449 170.836 74.2889 170.769C75.6609 170.71 78.3139 169.688 77.1999 169.648C76.6499 169.628 75.9299 169.787 75.5999 170ZM106.48 170.08C106.119 170.441 106 175.578 106 190.74V210.92L107 212.964C109.133 217.325 113.104 220.038 118.8 221.029C119.35 221.125 118.63 220.778 117.2 220.258C111.464 218.174 109.284 216.517 107.41 212.82L106.393 210.812L106.496 190.706L106.6 170.6H110H113.4L113.6 189.6C113.812 209.763 113.797 209.61 115.817 212.258C119.012 216.447 132.851 218.196 144.8 215.922C156.843 213.63 152.758 206.897 138.4 205.374L137 205.225L138.4 205.635C139.17 205.861 140.353 206.215 141.028 206.423C141.704 206.63 142.801 206.8 143.466 206.8C148.033 206.8 151.865 209.798 150.818 212.553C148.859 217.706 121.724 217.665 116.708 212.503C114.374 210.1 114.4 210.36 114.4 189.797V170.845L113.511 170.223C112.42 169.459 107.207 169.353 106.48 170.08ZM145.8 170C146.24 170.189 149.697 170.356 153.482 170.372L160.364 170.4L160.639 171.865C161.015 173.872 160.461 174.56 158.26 174.818C155.603 175.13 155.331 175.542 156.135 178.031C158.192 184.401 155.175 189.242 147.4 192.049C146.05 192.537 145.711 192.776 146.358 192.786C148.087 192.812 153.036 190.118 154.6 188.3C157.214 185.261 157.468 183.916 156.727 177.017C156.607 175.899 156.701 175.816 158.4 175.521C160.524 175.153 161.2 174.388 161.2 172.352C161.2 169.696 160.88 169.596 152.471 169.628C147.926 169.645 145.313 169.791 145.8 170ZM165.2 169.991C164.443 170.47 164.066 201.428 164.801 202.801C165.506 204.12 172.522 203.996 173.405 202.649C174.463 201.034 174.11 170.961 173.024 170.167C172.127 169.512 166.171 169.378 165.2 169.991ZM193.55 169.85C194.76 170.092 194.8 170.168 194.8 172.201C194.8 175.083 194.496 175.251 189.542 175.114L185.4 175L185.282 172.533C185.181 170.436 185.271 170.038 185.882 169.879C186.994 169.591 192.155 169.571 193.55 169.85ZM172.72 170.88C173.409 171.569 173.409 202.031 172.72 202.72C172.075 203.365 165.925 203.365 165.28 202.72C164.772 202.212 164.548 172.322 165.043 171.033C165.349 170.234 171.943 170.103 172.72 170.88ZM184.4 172.4V174.4H181.191C177.538 174.4 176.712 173.736 177.566 171.489C177.969 170.429 178.065 170.4 181.19 170.4H184.4V172.4ZM205.776 171.721C206.532 173.874 205.895 174.187 200.488 174.312C195.114 174.437 194.813 174.275 195.405 171.579L195.669 170.376L200.525 170.488L205.382 170.6L205.776 171.721ZM134.102 174.36C127.184 176.929 125.808 184.144 131.589 187.532C136.787 190.578 148.513 187.949 148.375 183.769C148.351 183.056 148.325 183.061 148.012 183.833C145.144 190.923 129.985 189.721 128.591 182.293C127.053 174.096 143.005 170.957 147.633 178.546C148.053 179.236 148.398 179.602 148.399 179.359C148.412 175.454 139.524 172.346 134.102 174.36ZM80.2599 174.42C72.3139 175.753 67.7909 183.699 70.2389 192.027C71.1079 194.986 74.1819 198.751 75.0339 197.9C75.1479 197.785 74.6149 197.304 73.8489 196.831C68.5239 193.539 69.1059 180.815 74.7529 177.079C78.3819 174.677 87.1289 173.932 89.2539 175.845C90.7939 177.231 90.2059 188.976 88.4349 192.2C86.0039 196.627 82.1249 198.754 77.4369 198.23C76.0299 198.073 75.6479 198.118 76.1999 198.373C80.1849 200.218 86.6679 197.047 89.2299 192C90.5899 189.321 90.9419 176.606 89.6869 175.475C88.3809 174.299 83.9419 173.802 80.2599 174.42ZM148.493 181.2C148.493 181.97 148.575 182.285 148.676 181.9C148.776 181.515 148.776 180.885 148.676 180.5C148.575 180.115 148.493 180.43 148.493 181.2ZM224.287 188.408C217.604 189.8 214.702 192.73 216.522 196.249C217.802 198.724 222.888 200 225.8 198.578C226.849 198.065 226.874 198.018 226 198.201C220.108 199.437 216.8 197.991 216.8 194.181C216.8 190.659 223.317 187.998 230.8 188.463L233 188.6L233.122 190.072C233.304 192.249 229.33 197.6 227.532 197.6C227.276 197.6 227.17 197.703 227.296 197.829C228.037 198.571 231.696 195.321 233.034 192.735C235.456 188.051 232.655 186.666 224.287 188.408ZM132.424 193.269C127.366 195.14 132.239 199.831 140 200.562L142.2 200.769L139.8 200.214C133.038 198.648 131.2 197.738 131.2 195.955C131.2 194.042 133.104 193.142 136.6 193.404C138.14 193.519 140.75 193.464 142.4 193.282C145.018 192.992 144.622 192.952 139.301 192.966C135.946 192.975 132.851 193.111 132.424 193.269ZM142.8 201.161C143.13 201.346 144.12 201.623 145 201.777C146.949 202.117 151.949 203.455 154.4 204.292C158.137 205.568 160 207.846 160 211.138C160 215.907 156.436 218.443 147.241 220.214C144.28 220.784 142.561 221.501 145.2 221.065C151.21 220.072 154.095 219.225 156.433 217.768C160.603 215.169 161.798 210.724 159.355 206.899C158.2 205.089 154.256 203.348 148.2 201.976C147.1 201.726 145.549 201.36 144.754 201.161C142.875 200.692 141.964 200.692 142.8 201.161ZM225 212.361C218.279 213.392 214.019 218.298 214.004 225.024C213.998 227.836 213.496 228.346 210.6 228.485C208.246 228.598 208.199 228.623 208.122 229.8C208.048 230.918 208.063 230.931 208.34 230C208.609 229.092 208.836 229 210.818 229H213L213.119 231.052L213.238 233.104L211.843 233.366C209.951 233.721 208.407 233.273 207.993 232.249C207.735 231.608 207.645 231.564 207.625 232.071C207.576 233.377 208.74 234 211.229 234C212.533 234 213.639 234.045 213.687 234.1C213.735 234.155 213.87 240.5 213.987 248.2L214.2 262.2L218.141 262.315C223.677 262.476 223.2 263.827 223.2 247.994C223.2 236.045 223.273 234.458 223.833 234.243C225.037 233.78 231.822 233.981 232.521 234.5C233.127 234.949 233.206 236.383 233.298 248.6L233.4 262.2H237.6H241.8V245.4V228.6L232.885 228.4C222.891 228.176 223.217 228.284 223.206 225.185C223.184 218.513 228.248 216.623 240.665 218.671C243.201 219.089 244.627 214.024 242.293 212.888C240.999 212.259 228.209 211.868 225 212.361ZM194.795 213.412C194.163 215.076 194.267 260.866 194.906 261.739C195.339 262.332 196.008 262.414 199.606 262.315L203.8 262.2V237.4V212.6L199.495 212.486L195.191 212.373L194.795 213.412ZM238.81 212.821C242.959 213.337 243.517 213.766 242.867 215.935C242.19 218.193 241.518 218.638 239.684 218.043C230.252 214.982 222.4 218.879 222.4 226.62C222.4 227.595 222.379 227.6 218.4 227.6H214.4V225.402C214.4 215.229 222.907 210.844 238.81 212.821ZM288.79 213.426C288.162 215.077 288.272 260.872 288.906 261.739C289.339 262.332 290.008 262.414 293.606 262.315L297.8 262.2L297.903 237.626C297.984 218.231 297.9 212.984 297.503 212.732C296.065 211.819 289.193 212.367 288.79 213.426ZM332.093 212.867C331.742 213.218 331.6 215.278 331.6 220.031C331.6 228.296 332.201 227.66 324.043 228.034C315.014 228.448 310.404 230.209 306.249 234.83C300.282 241.466 300.53 254.45 306.719 259.488C312.527 264.216 323.332 264.336 329.067 259.737C331.595 257.71 332.122 257.936 332.488 261.2C332.599 262.193 332.63 262.2 336.6 262.2H340.6V237.4V212.6L336.593 212.487C333.818 212.409 332.434 212.526 332.093 212.867ZM203.403 213.7C203.523 214.195 203.571 225.22 203.511 238.2L203.4 261.8L199.66 261.916C197.246 261.99 195.721 261.866 195.36 261.567C194.654 260.981 194.514 214.882 195.214 213.574C195.895 212.301 203.091 212.412 203.403 213.7ZM297.12 213.28C297.884 214.044 297.806 260.931 297.04 261.567C296.681 261.865 295.205 261.991 292.94 261.916L289.4 261.8L289.296 237.8C289.239 224.6 289.279 213.575 289.384 213.3C289.642 212.623 296.446 212.606 297.12 213.28ZM340.203 213.7C340.323 214.195 340.371 225.22 340.311 238.2L340.2 261.8L336.693 261.916C334.094 262.001 333.149 261.898 333.041 261.516C332.96 261.232 332.738 260.282 332.547 259.404C332.082 257.266 331.12 257.128 329.256 258.935C324.162 263.871 311.811 263.688 306.586 258.599C303.582 255.673 302.8 253.314 302.8 247.175C302.8 234.659 310.465 228.4 325.791 228.4C332.365 228.4 332.181 228.627 332.269 220.405C332.357 212.171 332.017 212.8 336.38 212.8C339.787 212.8 339.997 212.849 340.203 213.7ZM179.684 215.618C178.818 215.966 178.774 216.168 178.884 219.293L179 222.6H183.4H187.8L187.918 219.462C187.991 217.493 187.861 216.115 187.569 215.762C187.029 215.112 181.21 215.006 179.684 215.618ZM186.944 216.11C187.514 216.526 187.619 217.127 187.52 219.41L187.4 222.2L183.633 222.316C179.276 222.45 179.212 222.405 179.212 219.2C179.212 216.199 179.364 216.06 182.812 215.899C184.455 215.822 185.901 215.723 186.024 215.679C186.146 215.636 186.561 215.829 186.944 216.11ZM121.428 221.653C122.994 221.99 138.87 222 141.4 221.665C142.5 221.519 138.193 221.4 131.828 221.4C125.464 221.4 120.784 221.514 121.428 221.653ZM148.287 228.423C138.201 230.902 133.405 236.631 133.405 246.2C133.405 256.589 138.254 261.507 149.8 262.826C164.371 264.491 174.953 256.717 174.918 244.372C174.883 231.663 163.307 224.731 148.287 228.423ZM260.4 228.206C254.67 229.61 250.003 233.153 247.758 237.801C245.233 243.031 246.253 252.941 249.742 257.065C254.501 262.69 268.199 264.784 279.731 261.649L282.2 260.978L282.19 258.7C282.177 255.545 281.843 255.317 278.518 256.188C266.457 259.346 256 255.565 256 248.047C256 245.928 255.509 246 269.956 246C285.238 246 284.245 246.323 284.094 241.402C283.785 231.34 272.73 225.184 260.4 228.206ZM161.353 228.79C179.176 232.458 179.319 256.32 161.548 261.356C143.468 266.48 129.261 255.438 134.459 240.302C137.611 231.125 149.002 226.249 161.353 228.79ZM223 231.207V233.8H218.6H214.2V231.2V228.6L217.2 228.4C218.85 228.29 220.83 228.293 221.6 228.407L223 228.614V231.207ZM273.463 229.11C280.152 230.931 283.776 235.579 283.519 242.008L283.4 245L269.867 245.2C253.626 245.44 253.567 245.466 256.229 251.2C258.866 256.879 267.796 259.38 276.935 257C281.058 255.926 282.201 256.457 281.924 259.318C281.532 263.375 259.321 263.546 253.465 259.539C248.432 256.094 247.038 253.167 247.017 246C246.976 232.398 258.503 225.037 273.463 229.11ZM179.28 228.88C178.522 229.638 178.597 261.334 179.359 261.966C179.722 262.268 181.297 262.39 183.859 262.315L187.8 262.2L187.905 245.846C187.98 234.107 187.881 229.339 187.556 228.946C186.962 228.231 179.985 228.175 179.28 228.88ZM187.357 229.433C187.982 231.062 187.615 261.509 186.967 261.757C185.416 262.353 180.037 262.016 179.658 261.3C179.204 260.441 179.266 230.007 179.724 229.3C180.244 228.496 187.043 228.614 187.357 229.433ZM241.4 245.4V261.8L238.061 261.917C233.224 262.086 233.6 263.278 233.6 247.765C233.6 232.187 234.131 233.6 228.275 233.6C223.909 233.6 223.662 233.435 223.909 230.692L224.082 228.785L232.741 228.892L241.4 229V245.4ZM262.13 233.055C258.253 234.429 254.882 239.053 256.545 240.717C257.132 241.305 258.316 241.417 265.072 241.524C274.014 241.666 275.2 241.433 275.2 239.536C275.2 234.507 268.045 230.959 262.13 233.055ZM269.68 233.661C272.292 234.614 274.151 236.457 274.56 238.498C275.012 240.761 274.742 240.826 265.445 240.708L257 240.6L256.876 239.317C256.463 235.049 264.161 231.649 269.68 233.661ZM151.8 233.444C145.181 235.114 142.638 238.456 142.645 245.472C142.658 256.658 154.742 261.723 162.609 253.839C170.994 245.435 163.125 230.587 151.8 233.444ZM319 233.914C307.924 237.597 309.234 257.6 320.551 257.6C325.321 257.6 329.305 254.588 331.293 249.479C332.142 247.298 332.787 237.596 332.231 235.381C331.685 233.206 323.77 232.329 319 233.914ZM156.845 234.006C163.671 235.29 166.844 241.067 164.957 248.774C162.711 257.949 149.022 259.875 144.329 251.678C142.559 248.586 142.365 241.929 143.976 239.585C146.28 236.234 148.469 234.663 151.737 234.017C154.086 233.552 154.431 233.551 156.845 234.006ZM330.213 234.18L331.6 234.759L331.596 240.68C331.59 248.607 330.847 251.09 327.532 254.253C323.169 258.417 316.447 257.876 313.291 253.107C310.603 249.046 312.107 238.989 315.827 236.152C318.969 233.755 326.67 232.699 330.213 234.18ZM222.489 247.861C222.619 263.199 222.964 262.072 218.193 261.917L214.6 261.8L214.495 248.3L214.389 234.8H218.384H222.379L222.489 247.861Z" fill="#5C5C5C"/>
</g>
<defs>
<clipPath id="clip0_7_8">
<rect width="400" height="400" fill="white"/>
</clipPath>
</defs>
</svg>
