<?xml version="1.0" encoding="utf-8"?>
<!-- Generator: Adobe Illustrator 23.0.2, SVG Export Plug-In . SVG Version: 6.00 Build 0)  -->
<svg version="1.1" id="Layer_1" xmlns="http://www.w3.org/2000/svg" xmlns:xlink="http://www.w3.org/1999/xlink" x="0px" y="0px"
	 viewBox="0 0 2550 1011.9" style="enable-background:new 0 0 2550 1011.9;" xml:space="preserve">
<style type="text/css">
	.st0{fill:#58585A;}
	.st1{fill:#74BB1F;}
	.st2{fill:#75BC21;}
	.st3{fill:#5A5A5C;}
	.st4{fill:#59595B;}
	.st5{fill:#74BC20;}
	.st6{fill:#79BE28;}
	.st7{fill:#5D5D5F;}
	.st8{fill:#626264;}
	.st9{fill:#74BB20;}
</style>
<g>
	<g>
		<path class="st0" d="M1474.2,615.2c-19.5,7.5-34.8,4.2-54.9,3.6c0-38.5,0-75.8,0-113.1c0-63.9-5.4-69.2-68.5-68.1
			c-8.9,0.2-17.7,1.4-31.5,2.5c0,58.8,0,116.5,0,171.8c-19.5,11.6-34.6,7.4-52.8,6.2c0-72.3,0-143,0-213
			c8.7-15.6,22.7-17.2,37.5-17.2c31.2,0,62.5-1.1,93.6,0.3c43.1,1.9,74.3,30.8,76.1,73.5C1475.8,512.3,1474.2,562.9,1474.2,615.2z"
			/>
		<path class="st1" d="M2076.5,616.9c-19.7,3.9-35,4.4-54.6-0.5c0-37.9,0-76.5,0-115.2c-0.1-58.8-5.7-64.4-65-63.5
			c-10.1,0.2-20.2,1.4-35.2,2.6c0,59.2,0,116.9,0,172.8c-19.7,9.4-34.6,8.3-55.3,1.5c0-65.5-0.8-132.6,0.6-199.6
			c0.4-17.9,15.3-26.4,33-26.5c36.4-0.2,72.9-1.5,109.2,1c36.6,2.5,65.6,32.3,67,69.4C2077.9,510.5,2076.5,562.4,2076.5,616.9z"/>
		<path class="st2" d="M2134.9,449c-12-4-21.3-7.2-30.5-10.2c-5.9-14.6-3.3-28.8-2.5-42.2c5.9-12.5,19.8-5.6,27.5-12.8
			c14.4-81,31.8-92.9,119.6-82.4c6.5,22.1,6.5,22.1,3.1,48.1c-18.8,13-56-10.9-61.8,29.5c10,15.8,27.5,4.3,40.7,12.6
			c5.3,15.2,5,31.3-0.6,49.1c-12.6,1.8-25.1,3.5-40.8,5.7c0,56.3,0,111.8,0,166.9c-18.8,10.8-35.1,5-54.7,6.5
			C2134.9,561.1,2134.9,505.7,2134.9,449z"/>
		<path class="st3" d="M968.2,299.6c18,0,32.1,0,49.4,0c0,105.4,0,209.7,0,315.6c-14.7,8.9-31,4.9-49.4,2.4
			C968.2,512.6,968.2,408,968.2,299.6z"/>
		<path class="st0" d="M1070.2,300.4c17.3,0,32.3,0,50.2,0c0,105.8,0,210.3,0,315.7c-16.4,6.2-32.5,5.2-50.2,0.7
			C1070.2,511.6,1070.2,406.9,1070.2,300.4z"/>
		<path class="st4" d="M826.3,388.1c2,21.1,5.2,36.3-1.9,51.1c-16.8,9.5-36.9-1.9-58.7,13.3c0,51.9,0,108.1,0,164
			c-23.4,4.1-41,6.3-61.1-1.6c0-57.7-2.1-115.8,0.8-173.7c1.6-31.9,23.2-51.5,56.7-53C782.6,387.4,803.2,388.1,826.3,388.1z"/>
		<path class="st3" d="M866.7,391.3c16.5-5.8,31.6-3.2,49.5-1.5c0,75.8,0,150.5,0,225.2c-15.6,8.5-31,4.5-49.5,3.5
			C866.7,542.8,866.7,467.1,866.7,391.3z"/>
		<path class="st0" d="M1173.1,388.8c17.2,0,31.4,0,48.7,0c0,76.2,0,151.6,0,227.7c-15.1,6.2-30.4,3.2-48.7,2
			C1173.1,543,1173.1,467.6,1173.1,388.8z"/>
		<path class="st5" d="M1823.9,615.7c-17,6.7-32.3,4.5-50.3,2.1c0-74.7,0-149.5,0-226.6c16-5,32-4.6,50.3,0.1
			C1823.9,466.5,1823.9,541.3,1823.9,615.7z"/>
		<path class="st6" d="M1773,351.3c-2.5-18.5-4.5-33.6,1.4-49.1c15-6.8,30.1-3.9,45.9-2.1c10.3,15.5,5.4,31.9,4.1,48.6
			C1808.1,357.5,1791.9,354.1,1773,351.3z"/>
		<path class="st7" d="M1173.2,351.5c-5.1-17-5-33.2-0.1-49.9c15.8-5.2,30.9-3.8,46.8-1.1c8.6,15.9,4.8,32.3,2.8,50.9
			C1206.1,351.5,1190.1,351.5,1173.2,351.5z"/>
		<path class="st8" d="M914.8,302c7,15.5,4.5,30.6,2.4,46.3c-15.8,9.9-32.2,5.5-49.2,3.8c-7.8-16.4-5.4-32.5-1.8-49.6
			C882.6,295.8,898.5,296.6,914.8,302z"/>
		<path class="st0" d="M1726.1,399c0,84.3,0.8,166.2-0.4,248c-0.5,36.6-25.8,62.7-60.3,63.8c-44,1.3-88,0.3-131.9,0.3
			c-7.7-16-3-30-4.5-49.1c45.2,0,88.5,0,125.1,0c17.4-14.2,16.2-25.6,14.6-36.5c-10.3-8.2-21.2-6-31-5.1
			c-109.7,10.7-142.2-63.7-130.2-157.5c5.5-43,35.5-69.5,78.1-74.1C1637.2,383.3,1699.6,387.3,1726.1,399z M1668,445.1
			c-28.9-2.5-55.6-4.1-84,2.4c-24.5,28.8-24.7,63.5-8.4,93.3c19.9,36.3,58.3,22.2,92.3,22.3C1668,522.7,1668,484.6,1668,445.1z"/>
		<path class="st0" d="M615,388c0-33.3,0-59,0-87c17.5,0,32.5,0,51,0c0,103.6,0,207.9,0,316c-53.6,0-108.6,1.6-163.5-0.9
			c-18.2-0.8-30.9-18.5-39.4-34.9c-26.3-50.5-26.1-102.3-3.6-153.8c12.1-27.8,35.9-39.6,65.9-39.4C553.7,388.2,581.9,388,615,388z
			 M509.2,464.6c-17.2,24.6-18.1,56.5,0.8,80.4c26.9,33.9,65.9,16.2,102.4,18.9c0-40.5,0-77.5,0-121.6
			C575.2,448.6,535,427.8,509.2,464.6z"/>
		<path class="st9" d="M2377.4,620c-14.3,0-28.6,0.4-42.9-0.1c-43.8-1.5-67.6-23-70.1-66.4c-2-33.7-1.9-67.6-0.4-101.3
			c1.6-37,24.3-60.7,61.1-63.1c33.6-2.2,67.6-2.1,101.2-0.4c41,2.1,63.4,26.8,64.4,67.8c0.6,26,0.3,52,0.1,77.9
			c-0.6,66.8-18.6,84.6-86.2,85.5C2395.6,620.1,2386.5,620,2377.4,620z M2430.9,450.8c-36.8-11-72.6-11.1-111.7-0.2
			c-0.3,37.1-6.4,71.4,3.6,103.7c43.7,16.6,81.5,14.2,112.5-7.8C2435.1,514.9,2440.3,484,2430.9,450.8z"/>
		<path class="st0" d="M58.8,617.3c12.9-137,25.6-271.1,38.6-408.7c-12.7-6.5-24.9-17.1-15.3-36.4c7.5-11.5,22.6-2.3,32.5-11.9
			c0-12.5,0-25.4,0-41.4c43.5,0,85.6,0,130.8,0c1.2,12.5,2.5,26.2,3.9,41.1c7.1,11.4,22,1.3,33.8,12.1c8.4,17,3,30.2-18.9,35.4
			c13.1,135.9,26,270.2,38.8,403.4c-11.6,11.3-22.8,7.3-34.2,5.1c-10.2-14-1.9-30.7-8.7-49.5c-23.4-25.6-49.6-54.4-78.5-86.1
			c-27.3,29.7-53.3,58-80.2,87.2c-1.6,14.7-3.3,30-4.9,44.4C85.5,622.4,74.4,617,58.8,617.3z M181.8,430.3
			c17.9-19.9,34.2-38,52-57.8c-18-21.2-34.8-41.1-53.1-62.7c-18.3,22.5-33.8,41.4-51.2,62.8C148.1,393.2,164.3,411.1,181.8,430.3z
			 M115.9,405c-10.2,37.1-11.2,68.6-6.1,105.7c17.7-19.4,31.4-34.5,49.8-54.7C145.4,439.4,132.3,424.2,115.9,405z M205.7,458.6
			c14.8,16.5,29.6,33.1,49.8,55.6c1.1-41,1.1-71.8-9.8-106.2C229.6,425.9,214.7,438.3,205.7,458.6z M216.9,205.7
			c-24.9,0-47,0-74.3,0c14.5,19.4,25.9,34.6,38.3,51.2C193.5,238.7,210.3,226.3,216.9,205.7z M124.1,245.5
			c-1.8,29.6-3.3,56.2-5.2,87.7c14.7-17.5,26.9-32,41-48.9C147.2,269.3,141.6,253.3,124.1,245.5z M237.6,324c0-27.7,0-52.1,0-79.5
			c-17.1,12.1-25.9,24.5-34.2,41.4C215.4,299.3,226.1,311.2,237.6,324z M215.6,140.1H145v26.5h70.5V140.1z"/>
	</g>
	<g>
		<path class="st0" d="M524.2,839.4c0,25.1-16.4,42.7-40.4,42.7c-15.1,0-26.7-6.9-33-18.7v18.2h-12.6V762.2h12.6v53
			c6.3-11.7,17.9-18.7,32.7-18.7C507.4,796.4,524.2,814.1,524.2,839.4z M511.5,839.1c0-18.3-12.6-31.9-30.3-31.9
			c-17.9,0-30.4,13.4-30.4,31.9c0,18.7,12.6,31.9,30.4,31.9C498.9,871,511.5,857.6,511.5,839.1z"/>
		<path class="st0" d="M632.2,843.9H563c2.1,16.7,14.2,27.7,30.7,27.7c10.5,0,19.6-3.9,26.2-10.8l6.9,7.2c-8,8.9-20,14-34.1,14
			c-24.9,0-42.2-17.5-42.2-42.8c0-25.3,17.4-42.7,42-42.8C620,796.4,633.5,815.3,632.2,843.9z M620.9,833.9
			c-0.8-16.4-11.8-27-28.3-27c-16.3,0-27.8,10.6-29.6,27H620.9z"/>
		<path class="st0" d="M710.4,875.8c-6,4-12.4,6.3-19.2,6.3c-12.4,0.2-21.6-7.2-21.6-24v-48.8h-12.2v-9.8h12.2v-22.2h12.4v22.2H709
			v9.8h-26.9V856c0,10.3,4,14.5,11.3,14.5c4.3-0.2,8.9-1.6,13.5-4.3L710.4,875.8z"/>
		<path class="st0" d="M786.1,875.8c-6,4-12.4,6.3-19.2,6.3c-12.4,0.2-21.6-7.2-21.6-24v-48.8h-12.2v-9.8h12.2v-22.2h12.4v22.2h26.9
			v9.8h-26.9V856c0,10.3,4,14.5,11.3,14.5c4.3-0.2,8.9-1.6,13.5-4.3L786.1,875.8z"/>
		<path class="st0" d="M889.7,843.9h-69.2c2.1,16.7,14.2,27.7,30.7,27.7c10.5,0,19.6-3.9,26.2-10.8l6.9,7.2c-8,8.9-20,14-34.1,14
			c-24.9,0-42.2-17.5-42.2-42.8c0-25.3,17.4-42.7,42-42.8C877.5,796.4,891,815.3,889.7,843.9z M878.5,833.9
			c-0.8-16.4-11.8-27-28.3-27c-16.3,0-27.8,10.6-29.6,27H878.5z"/>
		<path class="st0" d="M967.2,796.4v12.2c-17.9-0.3-29,10.8-30.4,27.8v45.1h-12.6v-84.7h12.6v18.8
			C942.4,803.4,952.8,796.6,967.2,796.4z"/>
		<path class="st0" d="M1005.5,874.8c0,2.6-1,4.7-2.4,6.8l-7.6,11.4h-7.1l5.3-11.6c-2.4-1.3-3.5-3.9-3.5-6.6c0-4.7,3.2-8,7.6-8
			C1001.9,866.8,1005.5,869.8,1005.5,874.8z"/>
		<path class="st0" d="M1117.7,788.4v11.1h24.3v9.8h-24.3v72.3h-12.4v-72.3h-10.9v-9.8h10.9V790c0-18.3,13-28.5,27.2-28.3
			c6.4,0,13,2.1,18.2,6l-5.1,9.7c-3.9-2.7-8.5-4.3-12.9-4.3C1124.4,772.8,1117.7,778.4,1117.7,788.4z"/>
		<path class="st0" d="M1214.7,881.6v-13.2c-6.8,9.2-17.5,13.7-31.1,13.7c-17.5,0-28.8-11.1-28.8-25.6c0-14.8,11.8-24.1,31.7-24.3
			h27.8v-5.3c0-12.4-7.7-20-22.7-20c-9.3,0-18,3.5-26.9,9.8l-5.3-8.9c10.9-7.2,20.1-11.4,34.6-11.4c20.9,0,32.5,11.1,32.7,29.1
			l0.2,56H1214.7z M1214.6,852.5v-10.3h-26.4c-14.2,0-21.6,4.3-21.6,13.8c0,9.3,7.6,15.6,19.5,15.6
			C1200.4,871.6,1211.3,864.5,1214.6,852.5z"/>
		<path class="st0" d="M1289.6,806.9c-9.5,0-16.7,3.4-16.7,11.4c0,19.2,47.3,9.3,47.3,39.8c0,16.6-14.8,24-31.1,24
			c-12.1,0-24.5-4.2-32.5-11.9l4.8-9.2c7.2,6.8,18.2,10.8,28.2,10.8c10,0,18-3.9,18.2-12.4c0.5-20.6-47-10.1-46.8-40.1
			c0-16.1,14-23,29.5-23c10.1,0,20,3.1,27,7.7l-4.8,9.7C1306,809.5,1297.5,806.9,1289.6,806.9z"/>
		<path class="st0" d="M1397.4,875.8c-6,4-12.4,6.3-19.2,6.3c-12.4,0.2-21.6-7.2-21.6-24v-48.8h-12.2v-9.8h12.2v-22.2h12.4v22.2
			h26.9v9.8h-26.9V856c0,10.3,4,14.5,11.3,14.5c4.3-0.2,8.9-1.6,13.5-4.3L1397.4,875.8z"/>
		<path class="st0" d="M1501.1,843.9h-69.2c2.1,16.7,14.2,27.7,30.7,27.7c10.5,0,19.6-3.9,26.2-10.8l6.9,7.2c-8,8.9-20,14-34.1,14
			c-24.9,0-42.2-17.5-42.2-42.8c0-25.3,17.4-42.7,42-42.8C1488.8,796.4,1502.4,815.3,1501.1,843.9z M1489.8,833.9
			c-0.8-16.4-11.8-27-28.3-27c-16.3,0-27.8,10.6-29.6,27H1489.8z"/>
		<path class="st0" d="M1578.5,796.4v12.2c-17.9-0.3-29,10.8-30.4,27.8v45.1h-12.6v-84.7h12.6v18.8
			C1553.7,803.4,1564.2,796.6,1578.5,796.4z"/>
		<path class="st0" d="M1747.4,762.2v119.4h-12.6v-18.2c-6.3,11.9-17.9,18.8-33,18.8c-24.1,0-40.9-17.9-40.9-43.1
			s16.7-42.8,40.7-42.8c15.1,0,26.9,6.9,33.2,19v-53.1H1747.4z M1734.8,839.4c0-18.7-12.7-32.2-30.6-32.2c-18,0-30.7,13.5-30.7,32.2
			c0,18.7,12.7,32,30.7,32C1722.1,871.4,1734.8,858.1,1734.8,839.4z"/>
		<path class="st0" d="M1864.7,843.9h-69.2c2.1,16.7,14.2,27.7,30.7,27.7c10.5,0,19.6-3.9,26.2-10.8l6.9,7.2c-8,8.9-20,14-34.1,14
			c-24.9,0-42.2-17.5-42.2-42.8c0-25.3,17.4-42.7,42-42.8C1852.5,796.4,1866,815.3,1864.7,843.9z M1853.4,833.9
			c-0.8-16.4-11.8-27-28.3-27c-16.3,0-27.8,10.6-29.6,27H1853.4z"/>
		<path class="st0" d="M1933.1,807.7c-17.5,0-30.1,12.9-30.1,31.5c0,18.8,12.6,31.7,30.1,31.7c11.1,0,20.3-3.9,26.2-10.9l7.2,7.4
			c-7.6,9.2-19.3,14.6-34,14.6c-24.6,0-42-17.5-42-42.8c0-25.1,17.5-42.8,42-42.8c13.7,0,24.9,4.7,32.7,12.6l-6.9,8.7
			C1951.9,811.4,1943.4,807.7,1933.1,807.7z"/>
		<path class="st0" d="M2016.6,772.6c0,4.8-3.5,8.5-8.2,8.5s-8.2-3.7-8.2-8.5c0-5,3.5-8.5,8.2-8.5S2016.6,767.6,2016.6,772.6z
			 M2014.7,796.9v84.7h-12.4v-84.7H2014.7z"/>
		<path class="st0" d="M2079.9,806.9c-9.5,0-16.7,3.4-16.7,11.4c0,19.2,47.3,9.3,47.3,39.8c0,16.6-14.8,24-31.1,24
			c-12.1,0-24.5-4.2-32.5-11.9l4.8-9.2c7.2,6.8,18.2,10.8,28.2,10.8c10,0,18-3.9,18.2-12.4c0.5-20.6-47-10.1-46.8-40.1
			c0-16.1,14-23,29.5-23c10.1,0,20,3.1,27,7.7l-4.8,9.7C2096.3,809.5,2087.8,806.9,2079.9,806.9z"/>
		<path class="st0" d="M2158.3,772.6c0,4.8-3.5,8.5-8.2,8.5s-8.2-3.7-8.2-8.5c0-5,3.5-8.5,8.2-8.5S2158.3,767.6,2158.3,772.6z
			 M2156.4,796.9v84.7H2144v-84.7H2156.4z"/>
		<path class="st0" d="M2277.2,839.1c0,25.3-17.9,43-43,43c-25.3,0-43-17.7-43-43c0-25.1,17.7-42.7,43-42.7
			C2259.4,796.4,2277.2,814,2277.2,839.1z M2203.8,839.3c0,19,12.6,31.9,30.4,31.9c17.7,0,30.4-12.9,30.4-31.9
			c0-18.7-12.7-31.7-30.4-31.7C2216.4,807.5,2203.8,820.6,2203.8,839.3z"/>
		<path class="st0" d="M2389.8,829.4v52.1h-12.6v-48.9c0-15.1-9-24.1-24-24.1c-16.7,0.2-27,11.3-28.5,27.7v45.4h-12.6v-84.7h12.6
			v18.7c6-12.9,17.4-19,32.8-19.2C2377.8,796.4,2389.8,808.8,2389.8,829.4z"/>
		<path class="st0" d="M2452.4,806.9c-9.5,0-16.7,3.4-16.7,11.4c0,19.2,47.3,9.3,47.3,39.8c0,16.6-14.8,24-31.1,24
			c-12.1,0-24.5-4.2-32.5-11.9l4.8-9.2c7.2,6.8,18.2,10.8,28.2,10.8c10,0,18-3.9,18.2-12.4c0.5-20.6-47-10.1-46.8-40.1
			c0-16.1,14-23,29.5-23c10.1,0,20,3.1,27,7.7l-4.8,9.7C2468.8,809.5,2460.3,806.9,2452.4,806.9z"/>
	</g>
</g>
</svg>
