<?xml version="1.0" encoding="utf-8"?>
<!-- Generator: Adobe Illustrator 25.4.0, SVG Export Plug-In . SVG Version: 6.00 Build 0)  -->
<svg version="1.1" id="Layer_1" xmlns="http://www.w3.org/2000/svg" xmlns:xlink="http://www.w3.org/1999/xlink" x="0px" y="0px"
	 viewBox="0 0 350 100" style="enable-background:new 0 0 350 100;" xml:space="preserve">
<style type="text/css">
	.st0{fill-rule:evenodd;clip-rule:evenodd;fill:#020203;}
	.st1{fill-rule:evenodd;clip-rule:evenodd;fill:#A5CB68;}
	.st2{fill-rule:evenodd;clip-rule:evenodd;fill:#5EB236;}
</style>
<g id="enverus-logo__white">
	<polygon id="Fill-1" class="st0" points="73.19,75.14 73.19,24.95 84.24,24.95 105.23,56.98 105.41,56.98 105.41,24.95 
		115.63,24.95 115.63,75.14 105.41,75.14 83.51,42.84 83.32,42.84 83.32,75.14 	"/>
	<polygon id="Fill-2" class="st0" points="139.18,75.42 121.93,24.95 133.16,24.95 144.56,60.81 144.75,60.81 156.61,24.95 
		167.01,24.95 149.67,75.42 	"/>
	<polygon id="Fill-3" class="st0" points="173.31,75.14 173.31,24.95 207.54,24.95 207.54,34.17 184.35,34.17 184.35,44.93 
		206.9,44.93 206.9,53.7 184.35,53.7 184.35,66.2 208.81,66.2 208.81,75.14 	"/>
	<path id="Fill-4" class="st0" d="M227.16,47.67h7.57c1.55,0,3.01-0.09,4.2-0.37c1.19-0.27,2.19-0.64,2.92-1.19
		c0.73-0.55,1.37-1.28,1.73-2.19c0.37-0.91,0.55-1.92,0.55-3.19c0-2.46-0.73-4.2-2.28-5.29c-1.55-1-3.92-1.55-7.12-1.55h-7.57
		L227.16,47.67L227.16,47.67z M216.3,75.14v-50.2h18.89c3.1,0,5.84,0.27,8.31,0.82s4.47,1.46,6.21,2.74
		c1.73,1.28,3.01,2.83,3.92,4.84s1.37,4.38,1.37,7.12c0,2.01-0.27,3.74-0.73,5.29c-0.46,1.55-1.1,2.92-2.01,4.11
		s-2.01,2.19-3.29,3.01c-1.28,0.82-2.74,1.46-4.47,2.01l11.13,20.35h-11.68l-10.4-18.89h-6.39v18.89H216.3V75.14z"/>
	<path id="Fill-6" class="st0" d="M273.25,74.6c-2.56-0.91-4.65-2.28-6.3-4.02c-1.64-1.73-2.92-3.83-3.74-6.3s-1.19-5.29-1.19-8.31
		V24.95h11.04V55.7c0,1.83,0.18,3.47,0.55,4.84c0.37,1.37,0.91,2.65,1.64,3.56c0.73,1,1.73,1.73,2.92,2.19
		c1.19,0.46,2.65,0.73,4.29,0.73c3.29,0,5.57-1,7.03-2.92c1.46-1.92,2.19-4.75,2.19-8.4V24.95h10.86v30.94c0,3.1-0.37,5.84-1.19,8.4
		c-0.82,2.46-2.01,4.56-3.65,6.3c-1.64,1.73-3.74,3.1-6.3,4.02c-2.56,0.91-5.57,1.37-9.04,1.37
		C278.81,75.96,275.8,75.51,273.25,74.6z"/>
	<path id="Fill-8" class="st0" d="M329.92,76.15c-2.74,0-5.2-0.27-7.39-0.91c-2.19-0.64-4.2-1.46-5.93-2.56
		c-1.73-1.1-3.29-2.37-4.65-3.92c-1.37-1.55-2.46-3.19-3.38-4.93l8.4-4.93c0.73,1.37,1.55,2.56,2.46,3.65c1,1.1,2.01,1.92,3.19,2.65
		c1.19,0.73,2.37,1.28,3.74,1.64c1.37,0.37,2.74,0.55,4.2,0.55c1.28,0,2.46-0.09,3.56-0.37c1.1-0.27,2.01-0.55,2.74-1.1
		c0.73-0.46,1.37-1.1,1.83-1.83s0.64-1.55,0.64-2.56c0-0.91-0.18-1.73-0.64-2.46c-0.46-0.73-1.1-1.28-1.92-1.92
		c-0.82-0.55-1.92-1.1-3.19-1.55c-1.28-0.46-2.74-0.91-4.38-1.37c-1.46-0.46-3.01-0.82-4.47-1.28c-1.46-0.46-2.92-0.91-4.29-1.46
		c-1.37-0.55-2.65-1.19-3.83-1.92c-1.19-0.73-2.19-1.55-3.01-2.56c-0.82-1-1.55-2.19-2.01-3.47s-0.73-2.83-0.73-4.65
		c0-2.37,0.46-4.47,1.28-6.3c0.91-1.83,2.1-3.38,3.74-4.75c1.55-1.28,3.47-2.28,5.75-3.01c2.19-0.73,4.65-1,7.39-1
		c2.56,0,4.93,0.27,6.94,0.82c2.1,0.55,3.92,1.37,5.57,2.28s3.1,2.01,4.29,3.29c1.19,1.28,2.28,2.56,3.19,3.92l-7.67,5.84
		c-0.64-1.1-1.46-2.01-2.37-2.92s-1.92-1.64-3.01-2.28c-1.1-0.64-2.19-1.1-3.38-1.46c-1.19-0.37-2.37-0.55-3.65-0.55
		c-2.37,0-4.11,0.46-5.38,1.37c-1.28,0.91-1.92,2.1-1.92,3.65c0,1,0.18,1.83,0.64,2.56c0.46,0.73,1.1,1.37,2.01,1.92
		c0.91,0.55,2.01,1,3.29,1.46c1.28,0.46,2.74,0.91,4.38,1.37c1.46,0.37,2.92,0.82,4.38,1.28c1.46,0.46,2.92,0.91,4.2,1.55
		c1.37,0.55,2.65,1.28,3.74,2.01c1.19,0.73,2.19,1.64,3.01,2.65c0.82,1,1.55,2.19,2.01,3.56s0.73,2.83,0.73,4.56
		c0,2.01-0.37,3.92-1.19,5.84c-0.82,1.83-2.01,3.47-3.65,4.84c-1.64,1.46-3.74,2.56-6.21,3.38
		C336.4,75.69,333.39,76.15,329.92,76.15"/>
	<path id="Fill-11" class="st0" d="M63.25,53.88v-8.76H40.98V34.35h23.18v-9.31H29.93v41.34h11.04v-12.5H63.25z M40.98,75.33h24.37
		v-8.94H40.98V75.33z"/>
	<polygon id="Fill-13" class="st1" points="13.23,75.33 29.93,75.33 29.93,66.38 13.23,66.38 	"/>
	<polygon id="Fill-15" class="st1" points="0,53.97 11.13,53.97 11.13,45.03 0,45.03 	"/>
	<polygon id="Fill-16" class="st2" points="18.8,53.97 63.25,53.97 63.25,45.03 18.8,45.03 	"/>
</g>
</svg>
