<?xml version="1.0" encoding="UTF-8" standalone="no"?><!DOCTYPE svg PUBLIC "-//W3C//DTD SVG 1.1//EN" "http://www.w3.org/Graphics/SVG/1.1/DTD/svg11.dtd"><svg width="100%" height="100%" viewBox="0 0 758 125" version="1.1" xmlns="http://www.w3.org/2000/svg" xmlns:xlink="http://www.w3.org/1999/xlink" xml:space="preserve" xmlns:serif="http://www.serif.com/" style="fill-rule:evenodd;clip-rule:evenodd;stroke-linejoin:round;stroke-miterlimit:2;"><g id="enverus-openinvoice-black"><g id="Group"><path id="Fill-1" d="M161.074,115.109l0,-106.607l23.273,0l45.045,67.568l0.751,0l0,-67.568l21.771,0l0,106.607l-21.771,0l-47.298,-69.069l0,69.069l-21.771,0Z" style="fill:#131415;"/><path id="Fill-2" d="M302.215,115.109l-36.787,-106.607l24.024,0l24.775,75.826l25.525,-75.826l22.523,0l-37.538,106.607l-22.522,0Z" style="fill:#131415;"/><path id="Fill-3" d="M375.788,115.109l0,-106.607l72.823,0l0,19.52l-49.549,0l0,22.522l48.048,0l0,18.769l-48.048,0l0,26.276l52.552,0l0,19.52l-75.826,0Z" style="fill:#131415;"/><path id="Fill-4" d="M490.653,56.55l16.517,0c3.753,0 6.756,0 9.009,-0.75c2.252,-0.751 4.504,-1.502 6.006,-2.253c1.501,-1.501 3.003,-3.003 3.753,-4.504c0.751,-1.502 1.502,-4.505 1.502,-6.757c0,-5.255 -1.502,-9.009 -5.255,-11.261c-3.003,-2.252 -8.259,-3.003 -15.015,-3.003l-16.517,0l0,28.528Zm-23.273,58.559l0,-106.607l40.54,0c6.757,0 12.763,0.751 18.018,1.502c5.256,1.501 9.76,3.003 13.514,6.006c3.754,3.003 6.757,6.006 8.258,10.51c2.252,4.505 3.003,9.009 3.003,15.015c0,4.505 -0.751,8.259 -1.501,11.262c-1.502,3.003 -3.003,6.006 -4.505,8.258c-2.252,2.252 -4.504,4.504 -6.757,6.006c-3.003,1.501 -6.006,3.003 -9.759,4.504l24.024,43.544l-24.775,0l-22.523,-40.541l-13.513,0l0,40.541l-24.024,0Z" style="fill:#131415;"/><path id="Fill-6" d="M609.272,116.61c-7.508,0 -14.264,-0.75 -19.52,-3.003c-5.255,-2.252 -9.76,-4.504 -13.513,-8.258c-3.754,-3.754 -6.006,-8.258 -8.259,-13.513c-1.501,-5.256 -2.252,-11.262 -2.252,-18.018l0,-65.316l24.024,0l0,65.316c0,3.753 0.751,7.507 1.502,10.51c0.751,3.003 2.252,5.255 3.754,7.508c1.501,2.252 3.753,3.753 6.006,4.504c2.252,0.751 5.255,1.502 9.009,1.502c6.756,0 12.012,-2.253 15.015,-6.006c2.252,-4.505 3.753,-10.511 3.753,-18.018l0,-65.316l23.274,0l0,65.316c0,6.756 -0.751,12.762 -2.253,18.018c-1.501,5.255 -4.504,9.759 -8.258,13.513c-3.754,3.754 -8.258,6.757 -13.513,8.258c-5.256,2.253 -11.262,3.003 -18.769,3.003" style="fill:#131415;"/><path id="Fill-8" d="M710.623,116.61c-6.006,0 -11.261,-0.75 -15.766,-2.252c-4.504,-1.501 -9.009,-3.003 -12.762,-5.255c-3.754,-2.252 -6.757,-5.255 -9.76,-8.258c-3.003,-3.003 -5.255,-6.757 -7.508,-10.511l18.018,-10.51c1.502,3.003 3.003,5.255 5.256,7.507c2.252,2.252 4.504,4.505 6.756,6.006c2.253,1.502 5.256,3.003 8.259,3.754c3.003,0.751 6.006,1.501 9.009,1.501c3.003,0 5.255,0 7.507,-0.75c2.252,-0.751 4.505,-1.502 6.006,-2.253c1.502,-0.75 3.003,-2.252 3.754,-3.753c0.751,-1.502 1.501,-3.003 1.501,-5.256c0,-2.252 -0.75,-3.753 -1.501,-5.255c-0.751,-1.501 -2.252,-3.003 -4.505,-3.754c-1.501,-1.501 -3.753,-2.252 -6.756,-3.003c-3.003,-0.75 -6.006,-2.252 -9.009,-3.003c-3.003,-0.75 -6.757,-1.501 -9.76,-3.003c-3.003,-0.75 -6.006,-2.252 -9.009,-3.003c-3.003,-1.501 -5.255,-2.252 -8.258,-3.753c-2.253,-1.502 -4.505,-3.003 -6.757,-5.256c-1.502,-2.252 -3.003,-4.504 -4.505,-7.507c-0.75,-3.003 -1.501,-6.006 -1.501,-9.76c0,-5.255 0.751,-9.76 3.003,-13.513c1.501,-3.754 4.504,-7.508 8.258,-9.76c3.754,-3.003 7.508,-4.505 12.012,-6.006c5.255,-3.003 10.511,-3.754 15.766,-3.754c5.255,0 10.51,0.751 15.015,1.502c4.504,1.501 8.258,3.003 12.012,4.504c3.754,2.252 6.757,4.505 9.009,6.757c2.252,2.252 4.504,5.255 6.757,8.258l-16.517,12.012c-1.501,-2.252 -3.003,-4.504 -5.255,-6.006c-2.252,-1.501 -3.754,-3.754 -6.757,-4.504c-2.252,-1.502 -4.504,-2.253 -7.507,-3.003c-2.253,-0.751 -5.256,-0.751 -7.508,-0.751c-5.255,0 -9.009,0.751 -11.261,3.003c-3.003,2.252 -3.754,4.504 -3.754,7.507c0,2.253 0.751,3.754 1.502,5.256c0.75,1.501 2.252,3.003 4.504,3.753c2.252,1.502 4.505,2.253 6.757,3.003c3.003,0.751 6.006,1.502 9.009,3.003c3.003,0.751 6.006,1.502 9.76,3.003c3.003,0.751 6.006,2.253 9.009,3.003c3.003,1.502 5.255,3.003 8.258,4.505c2.252,1.501 4.504,3.754 6.757,5.255c1.501,2.252 3.003,4.505 4.504,7.508c0.751,3.003 1.502,6.006 1.502,9.759c0,4.505 -0.751,8.259 -2.253,12.012c-1.501,3.754 -4.504,7.508 -7.507,10.511c-3.754,3.003 -8.258,5.255 -13.514,7.507c-6.006,2.253 -12.762,3.003 -20.27,3.003" style="fill:#131415;"/><path id="Fill-11" d="M140.053,70.064l0,-18.769l-48.048,0l0,-23.273l49.549,0l0,-19.52l-73.574,0l0,87.838l24.025,0l0,-26.276l48.048,0Zm-48.048,45.045l52.552,0l0,-18.769l-52.552,0l0,18.769Z" style="fill:#131415;"/><path id="Fill-13" d="M32.695,115.109l35.285,0l0,-18.769l-35.285,0l0,18.769Z" style="fill:#a0ef6e;"/><path id="Fill-15" d="M4.167,70.064l24.024,0l0,-18.769l-24.024,0l0,18.769Z" style="fill:#a0ef6e;"/><path id="Fill-16" d="M43.956,70.064l96.097,0l0,-18.769l-96.097,0l0,18.769Z" style="fill:#56bc2f;"/></g></g></svg>