<svg xmlns="http://www.w3.org/2000/svg" height="800" width="1200" viewBox="-44.925 -10.2004 389.35 61.2024"><path fill="#F7901E" d="M48.57 32.9316h21.26v7.08H48.57z"/><path d="M299.5.7916v39.23h-11.07s-13.42-23.38-14.93-25.98v25.98h-8.88V.7916h11.51s13.03 22.74 14.5 25.32V.7916zm-271.42 0s-7.07 21.71-7.8 23.99c-.75-2.29-7.77-23.99-7.77-23.99H0v39.23h8.68v-26.79c1.41 4.63 8.12 26.79 8.12 26.79h6.58s7.06-22.42 8.46-26.89v26.89h8.72V.7916H28.08m115.38 31.63h-19.54v-9.11h17.92v-7.6h-17.92v-7.3h19.54v-7.62h-28.99v39.23h28.99zM98.15.7916s-10.49 13.13-12 14.86V.7916h-8.92v39.23h8.92v-17.32c1.57 1.93 12.26 17.32 12.26 17.32h12.44s-16.45-20.34-17.05-21.06c.61-.68 16.14-18.18 16.14-18.18H98.15zm123.24 19.5c0-12.07 6.51-20.28 18.55-20.28 11.88 0 18.54 8.37 18.54 20.28 0 11.93-6.54 20.51-18.54 20.51-12.15.01-18.55-8.4-18.55-20.51m9.47.03c0 6.1 2.46 12.24 9.08 12.24 6.65 0 9.1-6.14 9.1-12.24 0-5.94-2.64-12.04-9.1-12.04-6.44.01-9.08 6.1-9.08 12.04m-62.49-4.15c-4.28-1.14-8.33-1.83-8.41-4.6-.02-.79.25-1.44.84-2.01 1.51-1.43 4.95-1.84 7.67-1.64 4.12.34 6.54 1.05 9.81 2.87l1.93-7.98c-5-1.72-8.83-2.86-14.27-2.81-9.84.1-15.92 4.94-15.92 12.63 0 7.85 7.46 9.86 13.74 11.67 4.08 1.14 8.15 1.75 8.15 4.79 0 3.03-4.92 4.1-8.23 4.1-3.86 0-7.36-1.05-11.53-3.48l-2.54 7.9c5.65 2.22 9.08 3.17 14.54 3.17 5.97 0 10.9-1.66 13.88-4.65 2.17-2.14 3.3-4.99 3.3-8.23 0-7.96-7-10.18-12.96-11.73m35.6 0c-4.28-1.14-8.36-1.83-8.42-4.6-.01-.79.27-1.44.84-2.01 1.53-1.43 4.96-1.84 7.66-1.64 4.12.34 6.54 1.05 9.84 2.87l1.91-7.98c-5-1.72-8.82-2.86-14.27-2.81-9.83.1-15.91 4.94-15.91 12.63 0 7.85 7.47 9.86 13.74 11.67 4.08 1.14 8.16 1.75 8.16 4.79 0 3.03-4.92 4.1-8.24 4.1-3.87 0-7.36-1.05-11.53-3.48l-2.55 7.9c5.64 2.22 9.09 3.17 14.56 3.17 5.96 0 10.89-1.66 13.9-4.65 2.14-2.14 3.29-4.99 3.29-8.23-.04-7.96-7.05-10.18-12.98-11.73M61.8 28.8216c3.31 0 6.48-.56 9.08-1.8l-2.7-6.34c-1.34.82-2.95 1.3-4.68 1.3-4.6 0-8.41-2.29-8.41-7.53 0-5.25 3.8-7.53 8.41-7.53 1.73 0 3.34.47 4.68 1.27l2.7-6.33c-2.6-1.22-5.77-1.8-9.08-1.8-9.38 0-15.35 5.38-15.35 14.39 0 8.99 5.97 14.37 15.35 14.37" fill="#0068AC"/></svg>