<svg width="400" height="400" viewBox="0 0 400 400" fill="none" xmlns="http://www.w3.org/2000/svg">
<g clip-path="url(#clip0_7_2)">
<path fill-rule="evenodd" clip-rule="evenodd" d="M40.0449 120.616C22.9299 124.34 10.2499 137.758 7.36492 155.2C6.65192 159.511 6.52992 229.564 7.22692 234.671C9.56392 251.812 22.2869 265.77 39.3079 269.866C41.9159 270.494 45.9619 270.584 80.5669 270.781C108.68 270.941 118.974 271.121 119.085 271.454C119.168 271.704 110.864 282.463 100.631 295.363C79.3479 322.192 79.6159 321.738 82.5189 326.046C85.6579 330.703 88.4099 330.497 98.2369 324.869C157.778 290.768 189.695 272.485 191 271.732L192.6 270.81L273.8 270.804C345.656 270.798 355.414 270.725 358.6 270.171C376.138 267.122 389.493 253.657 392.624 235.869C393.466 231.081 393.472 159.85 392.63 154.8C389.986 138.936 378.653 126.126 363 121.308L359.4 120.2L201 120.13C67.1049 120.071 42.2049 120.147 40.0449 120.616ZM356.518 134.584C366.292 136.326 374.23 143.396 377.644 153.4L378.6 156.2V195.2C378.6 232.127 378.56 234.328 377.854 236.6C375.563 243.975 370.669 249.934 364.127 253.313C357.679 256.643 364.879 256.399 272.874 256.41C220.036 256.416 190.388 256.561 189.275 256.817C188.25 257.054 174.042 264.952 154.284 276.269C135.988 286.748 120.699 295.406 120.309 295.508C118.701 295.928 120.056 293.961 130.052 281.368C142.935 265.137 143.52 263.941 140.684 259.655C138.512 256.372 142.474 256.627 89.7999 256.385C37.5499 256.144 41.7859 256.394 35.6249 253.189C29.3749 249.937 24.8759 244.451 22.3499 237L21.3999 234.2V195.4V156.6L22.3389 153.6C25.5309 143.407 34.5349 135.733 44.9999 134.286C48.7639 133.765 353.562 134.057 356.518 134.584ZM155.381 177.167C151.366 178.023 152.536 177.224 142.349 186.063C128.934 197.702 129.105 197.145 138.9 197.291L146.2 197.4L146.139 198.6C146.106 199.26 145.947 201.17 145.786 202.843C145.417 206.675 145.388 206.66 150.517 205.375L154.681 204.331L154.64 201.428C154.589 197.728 154.985 197.2 157.813 197.2C159.708 197.2 160.043 197.064 161.027 195.9L162.124 194.6L160.562 194.497C155.605 194.172 155.76 194.802 158.2 184.887C160.596 175.152 160.903 175.991 155.381 177.167ZM149.795 183.593C150.123 184.123 148.09 192.524 147.408 193.457C146.299 194.974 136.99 194.579 137.879 193.053C138.295 192.338 148.833 183.2 149.242 183.2C149.413 183.2 149.662 183.377 149.795 183.593Z" fill="#FB6404"/>
<path fill-rule="evenodd" clip-rule="evenodd" d="M34.3 177.822C34.135 177.993 34 184.052 34 191.287V204.44L36.3 204.32L38.6 204.2L38.8 199.2L39 194.2L42.109 193.918C51.048 193.108 55.095 189.972 54.724 184.146C54.405 179.127 52.031 177.941 41.8 177.688C37.84 177.59 34.465 177.65 34.3 177.822ZM171.085 177.849C170.928 178.005 170.8 184.043 170.8 191.267V204.4H173.2H175.6L175.606 198.7C175.614 191.31 174.784 191.962 184.029 192.091L191.8 192.2L192 198.2L192.2 204.2L194.505 204.32L196.811 204.44L196.705 191.12L196.6 177.8H194.4H192.2L192 183.2L191.8 188.6L183.91 188.708L176.019 188.817L175.808 187.908C175.692 187.409 175.552 184.93 175.498 182.4L175.4 177.8L173.385 177.682C172.276 177.617 171.241 177.692 171.085 177.849ZM206.063 178.442C205.309 180.479 205.91 181.249 208.15 181.119L210.2 181V179.4V177.8L208.295 177.678C206.637 177.572 206.348 177.67 206.063 178.442ZM47.069 181.419C53.049 183.841 48.193 191.188 40.92 190.723L39 190.6L38.886 186.005C38.747 180.382 38.816 180.291 42.971 180.657C44.527 180.793 46.371 181.137 47.069 181.419ZM69.273 184.998C68.543 185.321 67.399 185.973 66.731 186.449C65.434 187.373 64.82 187.064 64.806 185.479C64.801 184.861 64.499 184.775 62.7 184.879L60.6 185L60.493 194.7L60.386 204.4H62.593H64.8V198.587C64.8 190.287 66.115 188.269 71.931 187.644L74.2 187.4V186C74.2 184.354 71.826 183.871 69.273 184.998ZM85.8 184.765C74.226 187.982 75.313 202.869 87.262 204.778C97.313 206.384 104.602 198.702 100.922 190.383C98.926 185.872 91.605 183.152 85.8 184.765ZM112.4 185.044C105.804 187.262 107.064 192.746 114.862 195.76C119.596 197.59 120.871 198.878 119.694 200.64C118.715 202.107 114.478 202.455 110.823 201.37C108.419 200.656 107.87 200.911 108.069 202.651C108.464 206.113 120.761 205.539 123.809 201.916C126.568 198.637 124.569 195.458 118.195 192.988C113.425 191.14 112.585 190.51 112.951 189.053C113.388 187.31 116.931 186.646 120.888 187.565C122.643 187.972 123.426 187.355 123.051 185.86C122.668 184.333 116.027 183.824 112.4 185.044ZM228.473 184.998C227.743 185.321 226.635 185.948 226.011 186.392C224.556 187.428 224.545 187.425 224.256 185.979C224.017 184.783 223.969 184.76 221.906 184.879L219.8 185L219.693 194.7L219.586 204.4H221.75C224.468 204.4 224.4 204.584 224.4 197.246V191.357L225.7 190.126C227.498 188.425 228.626 187.914 231.19 187.638L233.4 187.4V186C233.4 184.354 231.026 183.871 228.473 184.998ZM244.397 184.751C235.456 187.677 234.507 199.514 242.89 203.54C246.242 205.15 252.997 205.37 256.632 203.988C258.094 203.432 257.901 201.35 256.4 201.499C247.06 202.428 243.738 201.453 242.396 197.388C241.687 195.238 241.817 195.2 249.836 195.2C258.313 195.2 257.93 195.39 257.249 191.521C256.29 186.077 250.18 182.858 244.397 184.751ZM282.721 184.931C278.09 186.249 275.513 189.271 275.264 193.677C274.771 202.392 282.572 206.882 293.46 204.149C294.024 204.008 294.507 203.513 294.654 202.926C295.058 201.318 294.379 201.038 291.429 201.595C284.999 202.808 280.438 199.906 280.409 194.585C280.381 189.403 284.889 186.442 291.175 187.515C294.345 188.055 295.335 187.292 294.064 185.289C293.573 184.516 285.118 184.249 282.721 184.931ZM307.4 184.79C301.066 186.419 297.764 192.823 300.22 198.713C304.06 207.92 320.898 206.796 323.205 197.178C325.208 188.831 316.928 182.341 307.4 184.79ZM340.2 184.891C339.54 185.126 338.233 185.842 337.296 186.481C335.545 187.676 335.411 187.634 335.12 185.8C335.014 185.138 334.634 184.979 332.909 184.88C330.249 184.726 330.345 184.312 330.487 195.4L330.6 204.2L332.9 204.32L335.2 204.44V198.109C335.2 190.837 335.26 190.67 338.528 188.796C341.128 187.305 343.873 187.155 345.038 188.441C345.713 189.185 345.823 190.135 346 196.741L346.2 204.2H348.4H350.6L350.711 197.815C350.836 190.547 350.902 190.385 354.487 188.56C360.121 185.692 361.366 187.142 361.531 196.764L361.662 204.4H363.854H366.045L365.922 196.031C365.801 187.738 365.791 187.653 364.8 186.58C361.919 183.46 356.034 183.653 352.072 186.997L350.745 188.118L349.579 186.841C347.51 184.576 343.451 183.732 340.2 184.891ZM205.857 185.681C205.539 186.867 205.535 202.317 205.852 203.5C206.064 204.292 206.351 204.4 208.254 204.4H210.414L210.307 194.7L210.2 185L208.152 184.881C206.305 184.773 206.079 184.852 205.857 185.681ZM93.71 188.026C97.902 189.957 97.644 199.653 93.352 201.446C89.947 202.869 85.311 201.777 83.814 199.2C82.318 196.626 83.157 188.571 84.94 188.394C84.973 188.391 85.72 188.118 86.6 187.787C88.415 187.106 91.97 187.225 93.71 188.026ZM251.461 188.479C252.096 189.114 252.494 189.991 252.535 190.844L252.6 192.2L247.5 192.312C241.829 192.436 241.602 192.303 242.979 189.64C244.308 187.071 249.361 186.379 251.461 188.479ZM315.042 187.963C319.482 189.98 319.59 199.107 315.2 201.299C310.32 203.737 305.178 201.161 304.569 195.972C303.784 189.277 309.056 185.245 315.042 187.963ZM263.7 200.626C261.706 201.822 261.676 201.954 263.036 203.569C264.291 205.061 264.758 205.089 266.808 203.795C268.695 202.604 268.675 202.707 267.353 200.973C266.102 199.333 265.891 199.313 263.7 200.626Z" fill="#0D0D0D"/>
<path fill-rule="evenodd" clip-rule="evenodd" d="M41.211 119.656C23.062 122.664 8.34899 138.443 6.39399 156.997C5.87799 161.891 5.89199 229.18 6.40999 233.8C8.15299 249.344 18.691 263.069 33.2 268.693C40.314 271.451 38.19 271.324 80.135 271.491C113.173 271.622 118.041 271.717 117.846 272.225C117.723 272.546 109.683 282.811 99.979 295.036C80.027 320.172 80.743 319.163 80.743 322.141C80.743 326.825 83.713 329.8 88.391 329.8H91.04L107.22 320.548C116.119 315.459 138.88 302.409 157.8 291.548L192.2 271.8L275 271.584C350.12 271.388 358.049 271.306 360.485 270.708C378.607 266.255 391.545 251.903 393.607 233.967C394.158 229.174 394.119 160.8 393.562 156.2C391.342 137.843 376.603 122.509 358.4 119.619C355.069 119.09 44.408 119.127 41.211 119.656ZM363 121.308C378.653 126.126 389.986 138.936 392.63 154.8C393.472 159.85 393.466 231.081 392.624 235.869C389.493 253.657 376.138 267.122 358.6 270.171C355.414 270.725 345.656 270.798 273.8 270.804L192.6 270.81L191 271.732C189.695 272.485 157.778 290.768 98.237 324.869C88.41 330.497 85.658 330.703 82.519 326.046C79.616 321.738 79.348 322.192 100.631 295.363C110.864 282.463 119.168 271.704 119.085 271.454C118.974 271.121 108.68 270.941 80.567 270.781C45.962 270.584 41.916 270.494 39.308 269.866C22.287 265.77 9.56399 251.812 7.22699 234.671C6.52999 229.564 6.65199 159.511 7.36499 155.2C10.25 137.758 22.93 124.34 40.045 120.616C42.205 120.147 67.105 120.071 201 120.13L359.4 120.2L363 121.308ZM45 134.286C34.535 135.733 25.531 143.407 22.339 153.6L21.4 156.6V195.4V234.2L22.35 237C24.876 244.451 29.375 249.937 35.625 253.189C41.786 256.394 37.55 256.144 89.8 256.385C142.474 256.627 138.512 256.372 140.684 259.655C143.52 263.941 142.935 265.137 130.052 281.368C120.056 293.961 118.701 295.928 120.309 295.508C120.699 295.406 135.988 286.748 154.284 276.269C174.042 264.952 188.25 257.054 189.275 256.817C190.388 256.561 220.036 256.416 272.874 256.41C364.879 256.399 357.679 256.643 364.127 253.313C370.669 249.934 375.563 243.975 377.854 236.6C378.56 234.328 378.6 232.127 378.6 195.2V156.2L377.644 153.4C374.23 143.396 366.292 136.326 356.518 134.584C353.562 134.057 48.764 133.765 45 134.286ZM358.832 135.828C367.654 138.599 374.138 145.144 377.033 154.2C377.767 156.498 377.8 158.255 377.8 195.4V234.2L376.848 237C373.802 245.954 366.845 252.589 358.178 254.806C355.129 255.585 353.56 255.6 272.636 255.602C219.96 255.604 189.69 255.746 188.787 255.997C188.01 256.213 183.96 258.341 179.787 260.725C175.614 263.11 160.979 271.492 147.265 279.352C133.551 287.212 122.153 293.584 121.936 293.512C121.719 293.44 124.898 289.155 128.999 283.99C141.035 268.834 141.608 268.079 142.265 266.506C143.693 263.088 142.09 258.715 138.695 256.771L137 255.8L90 255.6C43.407 255.402 42.979 255.393 40.53 254.551C31.608 251.486 25.071 244.416 22.791 235.366C21.995 232.207 21.979 231.253 22.101 194.166L22.226 156.2L23.119 153.644C26.739 143.288 35.02 136.311 45 135.212C46.54 135.042 117.19 134.925 202 134.952L356.2 135.002L358.832 135.828ZM155.074 176.411C153.135 176.814 151.246 177.382 150.875 177.672C150.504 177.963 146.331 181.551 141.6 185.648C127.411 197.935 127.416 197.917 138.429 198.09C145.131 198.196 145.397 198.231 145.31 199C144.299 208.04 144.12 207.807 150.8 206.17C155.865 204.929 156.107 204.746 155.554 202.573C154.757 199.441 155.451 198.221 158.111 198.08C162.905 197.827 164.524 193.484 159.9 193.282C158.415 193.217 157.2 193.009 157.2 192.82C157.2 192.632 158.091 188.828 159.179 184.366C161.616 174.377 161.929 174.984 155.074 176.411ZM160 176.987C160 177.309 159.19 180.864 158.2 184.887C155.76 194.802 155.605 194.172 160.562 194.497L162.124 194.6L161.027 195.9C160.043 197.064 159.708 197.2 157.813 197.2C154.985 197.2 154.589 197.728 154.64 201.428L154.681 204.331L150.517 205.375C145.388 206.66 145.417 206.675 145.786 202.843C145.947 201.17 146.106 199.26 146.139 198.6L146.2 197.4L138.9 197.291C129.105 197.145 128.934 197.702 142.349 186.063C152.536 177.224 151.366 178.023 155.381 177.167C159.49 176.292 160 176.272 160 176.987ZM33.782 177.703C33.676 177.98 33.636 184.145 33.694 191.403L33.8 204.6H36.4H39L39.2 199.6L39.4 194.6L42.362 194.305C43.991 194.142 45.421 193.913 45.539 193.795C45.76 193.573 40.179 193.951 39.312 194.216C38.972 194.32 38.791 195.847 38.712 199.283L38.6 204.2L36.295 204.32L33.989 204.44L34.095 191.12L34.2 177.8L41.8 177.811C46.131 177.818 48.626 177.702 47.6 177.541C44.293 177.023 33.996 177.144 33.782 177.703ZM170.601 178.081C170.477 178.587 170.427 184.76 170.488 191.8L170.6 204.6H173.2H175.8L175.898 199.4C176.045 191.568 175.082 192.4 183.997 192.4H191.579L191.69 198.5L191.8 204.6H194.4H197V191V177.4L194.637 177.278C191.607 177.122 191.614 177.109 191.606 183.3L191.6 188.4H184.008C175.114 188.4 176.051 189.139 175.898 182L175.8 177.4L173.312 177.281C171.003 177.171 170.809 177.228 170.601 178.081ZM205.884 177.449C205.728 177.605 205.611 178.108 205.625 178.567C205.649 179.353 205.671 179.348 206.021 178.478C206.346 177.668 206.623 177.571 208.295 177.678L210.2 177.8V179.4V181L208.13 181.12C206.314 181.225 206.038 181.139 205.877 180.414C205.717 179.691 205.7 179.701 205.747 180.494C205.796 181.329 205.989 181.4 208.2 181.4H210.6V179.4V177.4L208.384 177.283C207.165 177.218 206.04 177.293 205.884 177.449ZM175.498 182.4C175.552 184.93 175.692 187.409 175.808 187.908L176.019 188.817L183.91 188.708L191.8 188.6L192 183.2L192.2 177.8H194.4H196.6L196.705 191.12L196.811 204.44L194.505 204.32L192.2 204.2L192 198.2L191.8 192.2L184.029 192.091C174.784 191.962 175.614 191.31 175.606 198.7L175.6 204.4H173.2H170.8V191.267C170.8 176.641 170.633 177.521 173.385 177.682L175.4 177.8L175.498 182.4ZM51 178.756C57.503 181.757 55.73 190.383 48.109 192.819C46.839 193.225 46.083 193.567 46.429 193.578C48.935 193.664 53.357 190.764 54.548 188.253C56.509 184.121 53.79 178.001 50 178.015C49.67 178.017 50.12 178.35 51 178.756ZM39.462 180.905C38.865 181.341 38.787 182.031 38.886 186.005L39 190.6L41.4 190.646L43.8 190.693L41.6 190.446L39.4 190.2L39.287 185.711L39.174 181.222L40.287 180.976C42.076 180.581 42.265 180.465 41.176 180.432C40.614 180.414 39.842 180.627 39.462 180.905ZM44.488 181.198C50.486 181.968 51.082 187.677 45.382 189.764C44.512 190.083 44.031 190.356 44.313 190.372C46.437 190.489 49.17 187.992 49.484 185.648C49.878 182.712 47.587 180.74 43.913 180.852C42.304 180.902 42.34 180.923 44.488 181.198ZM143.565 187.851C136.231 194.208 136.217 194.599 143.332 194.332C147.645 194.171 147.588 194.231 148.994 188.35C150.562 181.792 150.556 181.792 143.565 187.851ZM69.4 184.489C68.74 184.723 67.722 185.248 67.138 185.657C65.77 186.615 65.656 186.598 65.192 185.38C64.83 184.428 64.652 184.368 62.502 184.48L60.2 184.6V194.6V204.6H62.6H65L65.016 198.5L65.032 192.399L64.906 198.4L64.779 204.4H62.582H60.386L60.493 194.7L60.6 185L62.7 184.879C64.499 184.775 64.801 184.861 64.806 185.479C64.821 187.196 65.401 187.29 67.59 185.93C69.319 184.855 70.115 184.614 71.952 184.608L74.2 184.6V186V187.4L71.931 187.644C69.488 187.907 66.301 189.49 65.607 190.786C64.899 192.11 65.163 192.105 66.283 190.774C67.683 189.11 70.118 188.02 72.457 188.009C74.405 188 74.8 187.635 74.8 185.847C74.8 184.056 72.355 183.441 69.4 184.489ZM85.8 184.356C81.086 185.63 77.547 189.385 77.653 193C77.682 194.013 77.739 193.939 78.018 192.531C79.091 187.101 82.758 184.647 89.8 184.647C96.842 184.647 100.509 187.101 101.582 192.531C101.871 193.988 101.918 194.045 101.956 192.979C102.164 187.189 93.14 182.372 85.8 184.356ZM112.286 184.687C105.296 187.018 106.661 192.998 114.909 196.181C117.154 197.048 119.069 198.049 119.409 198.534C119.734 198.998 120 199.217 120 199.02C120 198.134 118.438 197.143 114.862 195.76C105.009 191.952 106.032 185.266 116.6 184.412L120.2 184.121L117.2 184.085C115.427 184.064 113.418 184.31 112.286 184.687ZM227.371 185.181C226.083 185.831 225.002 186.326 224.969 186.281C224.936 186.237 224.693 185.786 224.43 185.281C224.003 184.461 223.706 184.374 221.676 184.481L219.4 184.6V194.6V204.6L221.588 204.724C224.712 204.901 224.8 204.701 224.8 197.398V191.35L225.9 190.324C227.52 188.813 228.57 188.377 231.324 188.073C233.771 187.803 233.801 187.785 233.927 186.474C234.195 183.681 231.427 183.135 227.371 185.181ZM244.397 184.374C230.316 188.657 237.077 207.665 251.8 205.184L253.8 204.847L251.6 204.98C242.959 205.501 237.233 201.326 237.209 194.487C237.168 182.832 255.247 180.156 257.249 191.521C257.93 195.39 258.313 195.2 249.836 195.2C241.817 195.2 241.687 195.238 242.396 197.388C243.738 201.453 247.06 202.428 256.4 201.499C258.453 201.295 257.768 203.697 255.6 204.302C253.834 204.795 253.829 204.801 255.336 204.622C257.183 204.402 258.002 203.795 257.994 202.651C257.982 200.944 257.481 200.673 255.23 201.156C248.667 202.564 243.125 200.611 242.703 196.742L242.6 195.8L250.2 195.6L257.8 195.4L257.719 193.064C257.484 186.277 251.333 182.264 244.397 184.374ZM283.094 184.407C279.988 185.197 275.6 188.491 275.6 190.032C275.6 190.269 276.193 189.685 276.917 188.735C279.356 185.538 281.961 184.596 288.301 184.62C294.08 184.642 294.511 184.799 294.304 186.8C294.211 187.698 294.037 187.792 292.6 187.721L291 187.642L292.334 188.041C294.448 188.674 295.911 186.22 294.244 184.837C293.518 184.234 285.054 183.908 283.094 184.407ZM307.4 184.39C299.66 186.38 296.597 194.736 301.225 201.236C302.196 202.599 305.812 204.807 307 204.762C307.649 204.737 307.61 204.674 306.797 204.426C302.165 203.017 299.593 199.47 299.609 194.513C299.629 188.243 303.192 185.029 310.8 184.421L314.6 184.116L311.6 184.099C309.95 184.09 308.06 184.221 307.4 184.39ZM339.883 184.613C339.048 184.919 337.851 185.537 337.221 185.985C335.755 187.029 335.678 187.016 335.527 185.7C335.408 184.672 335.261 184.592 333.268 184.478C329.901 184.285 329.999 183.983 330.006 194.549C330.013 205.264 329.9 204.884 333.037 204.722L335.4 204.6L335.6 197.966L335.8 191.331L337 190.274C337.66 189.692 339.1 188.862 340.2 188.429C341.3 187.996 341.84 187.634 341.4 187.625C340.317 187.601 336.606 189.77 335.828 190.881C335.321 191.605 335.2 193.002 335.2 198.109V204.44L332.9 204.32L330.6 204.2L330.487 195.4C330.345 184.312 330.249 184.726 332.909 184.88C334.634 184.979 335.014 185.138 335.12 185.8C335.411 187.635 335.544 187.676 337.296 186.485C341.653 183.523 346.681 183.668 349.579 186.841L350.745 188.118L352.02 187.044C354.105 185.29 355.642 184.669 358.6 184.386L361.4 184.117L359 184.063C356.472 184.005 353.174 185.179 352.051 186.536C351.315 187.426 350.677 187.372 349.762 186.344C347.851 184.196 343.227 183.386 339.883 184.613ZM121.499 184.689C122.476 184.811 122.858 185.093 123.043 185.83C123.37 187.131 122.649 187.921 121.297 187.746C120.203 187.604 120.203 187.604 121.376 187.987C122.831 188.463 123.6 187.925 123.6 186.431C123.6 185.011 122.907 184.386 121.42 184.464L120.2 184.528L121.499 184.689ZM205.746 184.997C205.611 185.348 205.613 185.747 205.751 185.884C205.888 186.021 206 185.824 206 185.446C206 184.868 206.334 184.777 208.1 184.879L210.2 185L210.307 194.7L210.414 204.4H208.236C206.508 204.4 206.016 204.256 205.852 203.7C205.692 203.156 205.664 203.178 205.728 203.8C205.801 204.502 206.105 204.6 208.205 204.6H210.6V194.6V184.6L208.295 184.48C206.48 184.385 205.938 184.495 205.746 184.997ZM233.4 186V187.4L231.19 187.638C228.626 187.914 227.498 188.425 225.7 190.126L224.4 191.357V197.246C224.4 204.584 224.468 204.4 221.75 204.4H219.586L219.693 194.7L219.8 185L221.906 184.879C223.969 184.76 224.017 184.783 224.256 185.979C224.545 187.425 224.556 187.428 226.011 186.392C229.514 183.898 233.4 183.692 233.4 186ZM316.412 185.014C320.161 186.17 322.592 189.124 323.476 193.6L323.99 196.2L323.784 193.838C323.366 189.04 319.18 184.347 315.4 184.437C314.96 184.447 315.416 184.707 316.412 185.014ZM362.6 184.965C365.666 186.327 365.786 186.728 365.922 196.031L366.045 204.4H363.854H361.662L361.531 196.764C361.366 187.142 360.121 185.692 354.487 188.56C350.902 190.385 350.836 190.547 350.711 197.815L350.6 204.2H348.4H346.2L346 196.741C345.784 188.693 345.454 187.523 343.438 187.654C342.624 187.707 342.625 187.714 343.471 187.878C345.225 188.22 345.39 188.921 345.6 196.96L345.8 204.6L348.163 204.722C351.235 204.88 351.187 204.996 351.194 197.52L351.2 191.241L352.5 190.268C354.615 188.684 356.26 188 357.952 188C359.299 188 359.814 188.234 360.869 189.329C360.907 189.368 361.042 192.82 361.169 197L361.4 204.6H363.8H366.2L366.309 196.678C366.439 187.155 365.448 184.336 362 184.417C361.67 184.425 361.94 184.671 362.6 184.965ZM148.8 185.229C148.8 186.048 147.113 192.602 146.822 192.916C146.66 193.09 144.835 193.18 142.765 193.116L139.002 193L143.601 188.907C148.157 184.853 148.8 184.398 148.8 185.229ZM88.905 187.487C89.514 187.579 90.414 187.577 90.905 187.482C91.397 187.387 90.9 187.311 89.8 187.314C88.7 187.317 88.297 187.395 88.905 187.487ZM114.112 187.608C111.128 188.809 112.677 190.85 118.195 192.988C126.089 196.047 127.358 200.901 121.032 203.846C118.826 204.873 119.03 205.164 121.293 204.219C127.054 201.812 126.409 195.967 120.097 193.384C113.963 190.873 113.2 190.463 113.2 189.671C113.2 188.4 114.359 187.813 117.36 187.565L120.2 187.329L117.6 187.29C116.17 187.268 114.6 187.412 114.112 187.608ZM247.8 187.563C250.521 187.982 251.128 188.301 251.844 189.685C252.932 191.79 252.53 192 247.413 192C242.082 192 241.585 191.535 244.16 188.96C245.595 187.525 245.588 187.142 244.147 188.309C240.592 191.188 241.641 192.441 247.5 192.312L252.6 192.2L252.535 190.844C252.431 188.669 250.942 187.493 248.126 187.363L245.8 187.255L247.8 187.563ZM285.074 187.78C281.08 189.204 279.316 193.774 281.177 197.874C282.661 201.141 286.482 202.528 291.429 201.595C294.388 201.036 295.058 201.317 294.649 202.948C294.454 203.725 294.011 204.048 292.698 204.368L291 204.782L292.536 204.61C294.379 204.404 295.202 203.798 295.194 202.651C295.181 200.809 294.712 200.616 291.605 201.171C285.097 202.334 280.8 199.721 280.8 194.6C280.8 190.602 283.413 188.107 288.116 187.612C290.943 187.315 290.956 187.308 288.8 187.272C287.59 187.252 285.913 187.48 285.074 187.78ZM311.926 187.596C317.26 188.202 319.726 193.382 317.182 198.637C315.483 202.147 309.181 202.872 306.574 199.856C303.672 196.499 304.562 189.735 308.108 188.193C308.938 187.832 309.135 187.626 308.66 187.616C305.217 187.543 303.211 195.535 305.673 199.518C308.014 203.306 315.458 202.864 317.5 198.815C320.366 193.132 317.197 187.13 311.4 187.264L309.4 187.309L311.926 187.596ZM85.682 188.138C84.719 188.672 83.195 190.871 83.207 191.71C83.21 191.979 83.618 191.48 84.113 190.6C84.624 189.69 85.614 188.698 86.406 188.301C87.173 187.916 87.53 187.607 87.2 187.615C86.87 187.622 86.187 187.858 85.682 188.138ZM93.041 188.172C96.674 189.753 97.591 196.676 94.6 199.939C91.954 202.827 85.737 202.124 84.066 198.748C83.59 197.786 83.201 197.27 83.202 197.6C83.208 200.944 89.157 203.198 93.352 201.446C98.375 199.347 97.454 187.447 92.281 187.616C92.017 187.624 92.359 187.875 93.041 188.172ZM275.043 191.433C272.282 198.627 280.559 206.794 289 205.204L291 204.827L288.883 204.997C280.57 205.663 274.856 200.889 275.267 193.621C275.437 190.611 275.42 190.449 275.043 191.433ZM82.924 194.6C82.926 195.92 83.001 196.412 83.09 195.693C83.179 194.974 83.177 193.894 83.086 193.293C82.995 192.692 82.922 193.28 82.924 194.6ZM101.843 195.033C101.709 195.381 101.598 196.146 101.596 196.733C101.587 199.488 98.477 202.951 94.847 204.248C93.966 204.563 93.713 204.77 94.2 204.779C96.444 204.817 100.504 201.382 101.503 198.6C102.231 196.572 102.554 193.179 101.843 195.033ZM77.775 196.945C78.143 202.16 85.504 206.565 91.6 205.218L93.4 204.82L91.549 204.996C84.586 205.656 79.017 202.22 77.943 196.6C77.647 195.051 77.642 195.062 77.775 196.945ZM323.068 197.56C322.48 200.5 320.063 202.959 316.519 204.223C315.684 204.521 315.317 204.773 315.704 204.782C318.819 204.86 324.32 199.159 323.501 196.703C323.411 196.433 323.216 196.819 323.068 197.56ZM263.478 200.391C261.345 201.744 261.37 201.686 262.268 203.207C263.673 205.587 265.396 205.608 268.1 203.279C269.042 202.468 268.999 202.254 267.559 200.614C266.052 198.898 265.85 198.887 263.478 200.391ZM118.914 200.68C117.82 201.817 114.127 201.951 110.832 200.973C108.188 200.187 107.6 200.399 107.6 202.138C107.6 203.787 108.236 204.38 110.264 204.622C111.771 204.801 111.766 204.795 110 204.302C108.459 203.872 108.181 203.635 108.069 202.651C107.87 200.911 108.419 200.656 110.823 201.37C114.63 202.5 119.187 202.052 119.787 200.489C120.128 199.601 119.906 199.65 118.914 200.68ZM267.353 200.973C268.675 202.707 268.695 202.604 266.808 203.795C264.758 205.089 264.291 205.061 263.036 203.569C261.676 201.954 261.706 201.822 263.7 200.626C265.891 199.313 266.102 199.333 267.353 200.973ZM113.739 205.241C114.806 205.408 116.426 205.41 117.339 205.246C118.638 205.012 118.216 204.946 115.4 204.941C112.333 204.937 112.087 204.981 113.739 205.241ZM309.589 205.269C310.573 205.445 312.193 205.445 313.189 205.269C314.719 205 314.44 204.95 311.4 204.949C308.377 204.949 308.087 205 309.589 205.269Z" fill="#B15013"/>
</g>
<defs>
<clipPath id="clip0_7_2">
<rect width="400" height="400" fill="white"/>
</clipPath>
</defs>
</svg>
